<?xml version="1.0" encoding="UTF-8"?>
<svg version="1.1" xmlns="http://www.w3.org/2000/svg" width="128" height="128">
<path d="M0 0 C1.75201315 -0.00778911 3.50402257 -0.01646155 5.25602722 -0.02597046 C8.91828684 -0.04084017 12.58016069 -0.04035346 16.24243164 -0.02978516 C20.90610225 -0.01821252 25.56817984 -0.05203881 30.23158741 -0.0984745 C33.84792615 -0.12812631 37.46388919 -0.12966879 41.08032799 -0.12345505 C42.79812457 -0.12447298 44.51594457 -0.13478692 46.2336216 -0.15507889 C57.54287643 -0.27228836 66.90269805 0.53506088 75.95368958 8.22494507 C77.5577328 9.92975403 78.80369801 11.61834256 80.04296875 13.6015625 C80.40530609 14.16175583 80.76764343 14.72194916 81.14096069 15.29911804 C85.34342992 23.16582128 84.66063179 31.89159408 84.64453125 40.55859375 C84.65232036 42.3106069 84.6609928 44.06261632 84.67050171 45.81462097 C84.68537142 49.47688059 84.68488471 53.13875444 84.67431641 56.80102539 C84.66274377 61.464696 84.69657006 66.12677359 84.74300575 70.79018116 C84.77265756 74.4065199 84.77420004 78.02248294 84.7679863 81.63892174 C84.76900423 83.35671832 84.77931817 85.07453832 84.79961014 86.79221535 C84.91681961 98.10147018 84.10947037 107.4612918 76.41958618 116.51228333 C74.71477722 118.11632655 73.02618869 119.36229176 71.04296875 120.6015625 C70.48277542 120.96389984 69.92258209 121.32623718 69.34541321 121.69955444 C61.47870997 125.90202367 52.75293717 125.21922554 44.0859375 125.203125 C42.33392435 125.21091411 40.58191493 125.21958655 38.82991028 125.22909546 C35.16765066 125.24396517 31.50577681 125.24347846 27.84350586 125.23291016 C23.17983525 125.22133752 18.51775766 125.25516381 13.85435009 125.3015995 C10.23801135 125.33125131 6.62204831 125.33279379 3.00560951 125.32658005 C1.28781293 125.32759798 -0.43000707 125.33791192 -2.1476841 125.35820389 C-13.45693893 125.47541336 -22.81676055 124.66806412 -31.86775208 116.97817993 C-33.4717953 115.27337097 -34.71776051 113.58478244 -35.95703125 111.6015625 C-36.31936859 111.04136917 -36.68170593 110.48117584 -37.05502319 109.90400696 C-41.25749242 102.03730372 -40.57469429 93.31153092 -40.55859375 84.64453125 C-40.56638286 82.8925181 -40.5750553 81.14050868 -40.58456421 79.38850403 C-40.59943392 75.72624441 -40.59894721 72.06437056 -40.58837891 68.40209961 C-40.57680627 63.738429 -40.61063256 59.07635141 -40.65706825 54.41294384 C-40.68672006 50.7966051 -40.68826254 47.18064206 -40.6820488 43.56420326 C-40.68306673 41.84640668 -40.69338067 40.12858668 -40.71367264 38.41090965 C-40.83088211 27.10165482 -40.02353287 17.7418332 -32.33364868 8.69084167 C-30.62883972 7.08679845 -28.94025119 5.84083324 -26.95703125 4.6015625 C-26.39683792 4.23922516 -25.83664459 3.87688782 -25.25947571 3.50357056 C-17.39277247 -0.69889867 -8.66699967 -0.01610054 0 0 Z " fill="#004AAC" transform="translate(41.95703125,1.3984375)"/>
<path d="M0 0 C2.97 0 5.94 0 9 0 C9 0.66 9 1.32 9 2 C9.99 2 10.98 2 12 2 C12 3.98 12 5.96 12 8 C13.98 8 15.96 8 18 8 C18 8.99 18 9.98 18 11 C18.99 11 19.98 11 21 11 C21 12.98 21 14.96 21 17 C22.98 17 24.96 17 27 17 C27 17.99 27 18.98 27 20 C27.99 20 28.98 20 30 20 C30 20.99 30 21.98 30 23 C30.66 23 31.32 23 32 23 C32 23.99 32 24.98 32 26 C32.99 26 33.98 26 35 26 C35 17.42 35 8.84 35 0 C38.3 0 41.6 0 45 0 C45 14.52 45 29.04 45 44 C41.7 44 38.4 44 35 44 C35 42.68 35 41.36 35 40 C34.34 40 33.68 40 33 40 C31.375 38.625 31.375 38.625 30 37 C30 36.34 30 35.68 30 35 C29.01 35 28.02 35 27 35 C27 33.02 27 31.04 27 29 C25.02 29 23.04 29 21 29 C21 28.34 21 27.68 21 27 C20.01 27 19.02 27 18 27 C18 24.69 18 22.38 18 20 C16.02 20 14.04 20 12 20 C12 28.58 12 37.16 12 46 C10.02 46 8.04 46 6 46 C6 45.34 6 44.68 6 44 C4.02 44 2.04 44 0 44 C0 29.48 0 14.96 0 0 Z " fill="#F8FAFC" transform="translate(15,39)"/>
<path d="M0 0 C2.97 0 5.94 0 9 0 C9 0.66 9 1.32 9 2 C9.66 2 10.32 2 11 2 C11 2.99 11 3.98 11 5 C11.99 5 12.98 5 14 5 C14 16.88 14 28.76 14 41 C11.36 41 8.72 41 6 41 C6 43.64 6 46.28 6 49 C-2.91 49 -11.82 49 -21 49 C-21 48.34 -21 47.68 -21 47 C-21.99 47 -22.98 47 -24 47 C-24 46.01 -24 45.02 -24 44 C-24.99 44 -25.98 44 -27 44 C-27 43.01 -27 42.02 -27 41 C-27.99 41 -28.98 41 -30 41 C-30 40.01 -30 39.02 -30 38 C-30.99 38 -31.98 38 -33 38 C-33 37.01 -33 36.02 -33 35 C-33.99 35 -34.98 35 -36 35 C-36 29.06 -36 23.12 -36 17 C-33.03 17 -30.06 17 -27 17 C-27 17.99 -27 18.98 -27 20 C-26.01 20 -25.02 20 -24 20 C-24 24.95 -24 29.9 -24 35 C-16.08 35 -8.16 35 0 35 C0 23.45 0 11.9 0 0 Z " fill="#4A7FC5" transform="translate(104,39)"/>
<path d="M0 0 C2.97 0 5.94 0 9 0 C9 14.52 9 29.04 9 44 C5.7 44 2.4 44 -1 44 C-1 42.68 -1 41.36 -1 40 C-1.66 40 -2.32 40 -3 40 C-4.625 38.625 -4.625 38.625 -6 37 C-6 36.34 -6 35.68 -6 35 C-6.99 35 -7.98 35 -9 35 C-9 32.36 -9 29.72 -9 27 C-6.03 27 -3.06 27 0 27 C0 18.09 0 9.18 0 0 Z " fill="#FBFCFD" transform="translate(51,39)"/>
<path d="M0 0 C2.97 0 5.94 0 9 0 C9 0.99 9 1.98 9 3 C9.99 3 10.98 3 12 3 C12 7.95 12 12.9 12 18 C19.92 18 27.84 18 36 18 C36 20.97 36 23.94 36 27 C27.09 27 18.18 27 9 27 C9 26.01 9 25.02 9 24 C8.01 24 7.02 24 6 24 C6 23.01 6 22.02 6 21 C5.01 21 4.02 21 3 21 C3 20.01 3 19.02 3 18 C2.01 18 1.02 18 0 18 C0 12.06 0 6.12 0 0 Z " fill="#EDF2F9" transform="translate(68,56)"/>
<path d="M0 0 C2.97 0 5.94 0 9 0 C9 11.55 9 23.1 9 35 C6.03 35 3.06 35 0 35 C0 23.45 0 11.9 0 0 Z " fill="#FBFCFD" transform="translate(104,39)"/>
<path d="M0 0 C0.33 0 0.66 0 1 0 C1 8.91 1 17.82 1 27 C-1.97 27 -4.94 27 -8 27 C-8 27.66 -8 28.32 -8 29 C-9.98 29 -11.96 29 -14 29 C-14 28.34 -14 27.68 -14 27 C-14.99 27 -15.98 27 -17 27 C-17 24.69 -17 22.38 -17 20 C-18.98 20 -20.96 20 -23 20 C-23 28.58 -23 37.16 -23 46 C-24.98 46 -26.96 46 -29 46 C-29 45.34 -29 44.68 -29 44 C-28.01 44 -27.02 44 -26 44 C-26 35.09 -26 26.18 -26 17 C-23.03 17 -20.06 17 -17 17 C-17 15.02 -17 13.04 -17 11 C-16.01 11 -15.02 11 -14 11 C-14 12.98 -14 14.96 -14 17 C-12.02 17 -10.04 17 -8 17 C-8 17.99 -8 18.98 -8 20 C-7.01 20 -6.02 20 -5 20 C-5 20.99 -5 21.98 -5 23 C-4.34 23 -3.68 23 -3 23 C-3 23.99 -3 24.98 -3 26 C-2.01 26 -1.02 26 0 26 C0 17.42 0 8.84 0 0 Z " fill="#ABC3E4" transform="translate(50,39)"/>
<path d="M0 0 C0.66 0 1.32 0 2 0 C2 0.99 2 1.98 2 3 C2.99 3 3.98 3 5 3 C5 17.85 5 32.7 5 48 C2.03 48 -0.94 48 -4 48 C-4 47.01 -4 46.02 -4 45 C-4.99 45 -5.98 45 -7 45 C-7 44.01 -7 43.02 -7 42 C-4.69 42 -2.38 42 0 42 C0 28.14 0 14.28 0 0 Z " fill="#5285C7" transform="translate(60,41)"/>
<path d="M0 0 C8.58 0 17.16 0 26 0 C26 2.97 26 5.94 26 9 C17.42 9 8.84 9 0 9 C0 6.03 0 3.06 0 0 Z " fill="#FAFCFD" transform="translate(78,74)"/>
<path d="M0 0 C0.66 0 1.32 0 2 0 C2 0.99 2 1.98 2 3 C2.99 3 3.98 3 5 3 C5 5.64 5 8.28 5 11 C-3.58 11 -12.16 11 -21 11 C-21 10.34 -21 9.68 -21 9 C-21.99 9 -22.98 9 -24 9 C-24 8.01 -24 7.02 -24 6 C-16.08 6 -8.16 6 0 6 C0 4.02 0 2.04 0 0 Z " fill="#4D81C6" transform="translate(104,77)"/>
<path d="M0 0 C1.98 0 3.96 0 6 0 C6 0.99 6 1.98 6 3 C5.01 3 4.02 3 3 3 C3 11.91 3 20.82 3 30 C0.03 30 -2.94 30 -6 30 C-6 29.01 -6 28.02 -6 27 C-6.99 27 -7.98 27 -9 27 C-9 26.01 -9 25.02 -9 24 C-8.01 24 -7.02 24 -6 24 C-6 24.66 -6 25.32 -6 26 C-4.02 26 -2.04 26 0 26 C0 17.42 0 8.84 0 0 Z " fill="#4B7FC5" transform="translate(27,59)"/>
<path d="M0 0 C0.66 0 1.32 0 2 0 C3.18975795 3.56927385 3.12478155 6.79946972 3.09765625 10.51171875 C3.0962413 11.23994339 3.09482635 11.96816803 3.09336853 12.71846008 C3.08777659 15.04151539 3.07522562 17.36447388 3.0625 19.6875 C3.05748396 21.26367048 3.05292123 22.83984248 3.04882812 24.41601562 C3.0378098 28.27738098 3.02055074 32.13867408 3 36 C-3.75 36.125 -3.75 36.125 -6 35 C-6 34.34 -6 33.68 -6 33 C-4.02 33 -2.04 33 0 33 C0 22.11 0 11.22 0 0 Z " fill="#93B2DC" transform="translate(113,41)"/>
<path d="M0 0 C0.66 0 1.32 0 2 0 C2 14.52 2 29.04 2 44 C-0.64 44 -3.28 44 -6 44 C-6 43.34 -6 42.68 -6 42 C-4.02 42 -2.04 42 0 42 C0 28.14 0 14.28 0 0 Z " fill="#A1BCE1" transform="translate(60,41)"/>
<path d="M0 0 C0.99 0 1.98 0 3 0 C3 4.95 3 9.9 3 15 C2.34 15 1.68 15 1 15 C1 17.97 1 20.94 1 24 C0.67 23.01 0.34 22.02 0 21 C-0.99 21 -1.98 21 -3 21 C-3 20.01 -3 19.02 -3 18 C-3.99 18 -4.98 18 -6 18 C-6 17.01 -6 16.02 -6 15 C-4.02 15 -2.04 15 0 15 C0 10.05 0 5.1 0 0 Z " fill="#AEC6E5" transform="translate(77,59)"/>
<path d="M0 0 C0.33 0 0.66 0 1 0 C1 8.91 1 17.82 1 27 C-1.97 27 -4.94 27 -8 27 C-8 27.66 -8 28.32 -8 29 C-9.98 29 -11.96 29 -14 29 C-14 28.34 -14 27.68 -14 27 C-14.99 26.67 -15.98 26.34 -17 26 C-14.03 26 -11.06 26 -8 26 C-8 24.02 -8 22.04 -8 20 C-7.01 20 -6.02 20 -5 20 C-5 20.99 -5 21.98 -5 23 C-4.34 23 -3.68 23 -3 23 C-3 23.99 -3 24.98 -3 26 C-2.01 26 -1.02 26 0 26 C0 17.42 0 8.84 0 0 Z " fill="#81A6D6" transform="translate(50,39)"/>
<path d="M0 0 C2.97 0 5.94 0 9 0 C9 2.64 9 5.28 9 8 C6.03 8 3.06 8 0 8 C0 5.36 0 2.72 0 0 Z " fill="#FCFDFE" transform="translate(33,57)"/>
<path d="M0 0 C0.66 0 1.32 0 2 0 C2 2.64 2 5.28 2 8 C-5.59 8 -13.18 8 -21 8 C-21 7.34 -21 6.68 -21 6 C-14.07 6 -7.14 6 0 6 C0 4.02 0 2.04 0 0 Z " fill="#A2BDE1" transform="translate(104,77)"/>
<path d="M0 0 C0.33 0 0.66 0 1 0 C1 1.98 1 3.96 1 6 C-7.91 6 -16.82 6 -26 6 C-26 5.01 -26 4.02 -26 3 C-25.01 3 -24.02 3 -23 3 C-23 3.66 -23 4.32 -23 5 C-15.41 5 -7.82 5 0 5 C0 3.35 0 1.7 0 0 Z " fill="#769ED3" transform="translate(106,80)"/>
<path d="M0 0 C0.99 0 1.98 0 3 0 C3 3.96 3 7.92 3 12 C2.01 12 1.02 12 0 12 C0 8.04 0 4.08 0 0 Z " fill="#4C80C5" transform="translate(80,62)"/>
<path d="M0 0 C0.99 0 1.98 0 3 0 C3 0.66 3 1.32 3 2 C3.99 2.33 4.98 2.66 6 3 C6 6.63 6 10.26 6 14 C5.67 14 5.34 14 5 14 C5 11.36 5 8.72 5 6 C4.01 6 3.02 6 2 6 C2 5.01 2 4.02 2 3 C1.34 3 0.68 3 0 3 C0 2.01 0 1.02 0 0 Z " fill="#2967BA" transform="translate(104,74)"/>
<path d="M0 0 C0.99 0 1.98 0 3 0 C3 1.98 3 3.96 3 6 C4.98 6 6.96 6 9 6 C9 6.33 9 6.66 9 7 C6.03 7 3.06 7 0 7 C0 4.69 0 2.38 0 0 Z " fill="#93B3DC" transform="translate(24,41)"/>
<path d="M0 0 C1.98 0 3.96 0 6 0 C6 2.97 6 5.94 6 9 C5.67 7.68 5.34 6.36 5 5 C4.34 5 3.68 5 3 5 C1.375 3.625 1.375 3.625 0 2 C0 1.34 0 0.68 0 0 Z " fill="#84A8D7" transform="translate(45,74)"/>
<path d="M0 0 C0.66 0.33 1.32 0.66 2 1 C-1.3 4.3 -4.6 7.6 -8 11 C-8 6.67750434 -5.85084926 5.11604454 -3 2 C-2.01 1.34 -1.02 0.68 0 0 Z " fill="#0D4084" transform="translate(15,6)"/>
<path d="M0 0 C0.99 0 1.98 0 3 0 C3 0.66 3 1.32 3 2 C3.99 2 4.98 2 6 2 C6 3.32 6 4.64 6 6 C5.01 6 4.02 6 3 6 C3 5.01 3 4.02 3 3 C2.01 3 1.02 3 0 3 C0 2.01 0 1.02 0 0 Z " fill="#628FCC" transform="translate(71,74)"/>
<path d="M0 0 C0.99 0 1.98 0 3 0 C3 0.99 3 1.98 3 3 C3.66 3 4.32 3 5 3 C5 3.99 5 4.98 5 6 C4.01 6 3.02 6 2 6 C2 5.01 2 4.02 2 3 C1.34 3 0.68 3 0 3 C0 2.01 0 1.02 0 0 Z " fill="#6894CE" transform="translate(42,59)"/>
<path d="M0 0 C0.99 0 1.98 0 3 0 C3 1.98 3 3.96 3 6 C2.01 6 1.02 6 0 6 C0 4.02 0 2.04 0 0 Z " fill="#89ABD9" transform="translate(33,50)"/>
</svg>
