<?xml version="1.0" encoding="UTF-8"?>
<svg version="1.1" xmlns="http://www.w3.org/2000/svg" width="128" height="128">
<path d="M0 0 C0.75505325 -0.00817749 1.51010651 -0.01635498 2.28804016 -0.02478027 C4.78300196 -0.04955822 7.27790701 -0.06613372 9.77294922 -0.08056641 C11.05608316 -0.08855192 11.05608316 -0.08855192 12.36513901 -0.09669876 C16.89592338 -0.12340161 21.42668053 -0.14278276 25.95751953 -0.15722656 C29.69377238 -0.17054393 33.42947626 -0.19835961 37.16552734 -0.23925781 C41.68951049 -0.28877242 46.21299734 -0.31337071 50.73723984 -0.32045364 C52.45392147 -0.32713532 54.17059338 -0.34227632 55.88711929 -0.36634445 C65.39186977 -0.49197649 73.30749508 -0.35988304 81.45263672 5.19287109 C82.81388672 6.02818359 82.81388672 6.02818359 84.20263672 6.88037109 C91.05083759 13.91879977 93.59274742 21.05463951 93.62963867 30.6484375 C93.63620987 31.39373718 93.64278107 32.13903687 93.64955139 32.90692139 C93.66923295 35.3694266 93.68093766 37.83187086 93.69091797 40.29443359 C93.6949935 41.13882366 93.69906902 41.98321373 93.70326805 42.85319138 C93.72411041 47.32562768 93.73841807 51.79803349 93.74780273 56.27050781 C93.75884221 60.87022294 93.79321868 65.469451 93.83297443 70.06899452 C93.85923332 73.62255701 93.86750292 77.17600526 93.87108421 80.72965622 C93.875929 82.42398734 93.88748228 84.11831408 93.90612221 85.81254959 C94.01452807 96.32200524 93.38811527 104.77949863 87.76513672 113.94287109 C80.49232048 121.01912473 72.93220208 124.49669786 62.75415039 124.48339844 C62.00695236 124.49011566 61.25975433 124.49683289 60.48991394 124.50375366 C58.03340908 124.5226644 55.57717848 124.52665441 53.12060547 124.52880859 C51.40196117 124.53524168 49.68331795 124.54197041 47.9646759 124.54898071 C44.36615461 124.56093641 40.76772919 124.56466333 37.16918945 124.56347656 C32.57612326 124.56327355 27.98367702 124.59056486 23.39075756 124.62502098 C19.84150921 124.6473469 16.29240867 124.65131236 12.74309731 124.65025711 C11.05074237 124.65260492 9.35838285 124.66138188 7.66609764 124.67692184 C-9.06450576 124.81616646 -9.06450576 124.81616646 -16.54736328 120.19287109 C-17.59923828 119.63599609 -18.65111328 119.07912109 -19.73486328 118.50537109 C-25.29247315 113.93578076 -28.61082209 108.07289925 -30.54736328 101.19287109 C-30.73949364 98.59539489 -30.84128947 96.10549623 -30.83789062 93.51025391 C-30.84460785 92.76466217 -30.85132507 92.01907043 -30.85824585 91.25088501 C-30.87715866 88.79918653 -30.8811469 86.34776288 -30.88330078 83.89599609 C-30.88973441 82.17974742 -30.89646319 80.46349983 -30.9034729 78.74725342 C-30.91542963 75.15292827 -30.91915548 71.5586991 -30.91796875 67.96435547 C-30.91776589 63.38035495 -30.94504076 58.79697668 -30.97951317 54.21312332 C-31.00185979 50.66812366 -31.00580389 47.12327178 -31.0047493 43.57820892 C-31.00709463 41.88947154 -31.01585739 40.20072942 -31.03141403 38.51206207 C-31.12800212 26.94251466 -30.60187074 16.63703561 -22.32470703 7.72802734 C-15.49948342 1.8328342 -8.81501946 0.05299272 0 0 Z " fill="#62322C" transform="translate(32.54736328125,1.80712890625)"/>
<path d="M0 0 C25.41 0 50.82 0 77 0 C77 1.98 77 3.96 77 6 C79.31 6 81.62 6 84 6 C84 12.6 84 19.2 84 26 C81.69 26 79.38 26 77 26 C77 27.98 77 29.96 77 32 C75.02 32 73.04 32 71 32 C71 34.31 71 36.62 71 39 C58.13 39 45.26 39 32 39 C32 36.69 32 34.38 32 32 C30.02 32 28.04 32 26 32 C26 34.31 26 36.62 26 39 C19.73 39 13.46 39 7 39 C7 36.69 7 34.38 7 32 C4.69 32 2.38 32 0 32 C0 30.02 0 28.04 0 26 C-1.98 26 -3.96 26 -6 26 C-6 19.4 -6 12.8 -6 6 C-4.02 6 -2.04 6 0 6 C0 4.02 0 2.04 0 0 Z " fill="#4FBC26" transform="translate(25,19)"/>
<path d="M0 0 C1.98 0 3.96 0 6 0 C6 1.98 6 3.96 6 6 C4.02 6 2.04 6 0 6 C0 12.6 0 19.2 0 26 C1.98 26 3.96 26 6 26 C6 27.98 6 29.96 6 32 C8.31 32 10.62 32 13 32 C13 34.31 13 36.62 13 39 C19.27 39 25.54 39 32 39 C32 36.69 32 34.38 32 32 C33.98 32 35.96 32 38 32 C38 34.31 38 36.62 38 39 C50.87 39 63.74 39 77 39 C77 36.69 77 34.38 77 32 C78.98 32 80.96 32 83 32 C83 30.02 83 28.04 83 26 C85.31 26 87.62 26 90 26 C90 19.4 90 12.8 90 6 C91.98 6 93.96 6 96 6 C96 31.74 96 57.48 96 84 C94.02 84 92.04 84 90 84 C90 85.98 90 87.96 90 90 C88.02 90 86.04 90 84 90 C84 87.69 84 85.38 84 83 C85.65 83 87.3 83 89 83 C89.33 72.44 89.66 61.88 90 51 C88.02 51.33 86.04 51.66 84 52 C83.67 53.65 83.34 55.3 83 57 C57.92 57 32.84 57 7 57 C7 55.35 7 53.7 7 52 C4.36 52 1.72 52 -1 52 C-1 62.23 -1 72.46 -1 83 C-2.65 83 -4.3 83 -6 83 C-6 57.59 -6 32.18 -6 6 C-4.35 5.67 -2.7 5.34 -1 5 C-0.67 3.35 -0.34 1.7 0 0 Z " fill="#221D15" transform="translate(19,19)"/>
<path d="M0 0 C1.98 0 3.96 0 6 0 C6 8.58 6 17.16 6 26 C3.69 26 1.38 26 -1 26 C-1 28.31 -1 30.62 -1 33 C-17.83 33 -34.66 33 -52 33 C-52 28.71 -52 24.42 -52 20 C-56.29 20 -60.58 20 -65 20 C-65 24.29 -65 28.58 -65 33 C-69.29 33 -73.58 33 -78 33 C-78 30.69 -78 28.38 -78 26 C-79.98 26 -81.96 26 -84 26 C-84 17.75 -84 9.5 -84 1 C-81.69 1 -79.38 1 -77 1 C-77 2.65 -77 4.3 -77 6 C-51.92 6 -26.84 6 -1 6 C-1 4.35 -1 2.7 -1 1 C-0.67 0.67 -0.34 0.34 0 0 Z " fill="#B36A3B" transform="translate(103,70)"/>
<path d="M0 0 C25.41 0 50.82 0 77 0 C77 1.98 77 3.96 77 6 C79.31 6 81.62 6 84 6 C84 12.6 84 19.2 84 26 C81.69 26 79.38 26 77 26 C77 23.69 77 21.38 77 19 C75.02 19 73.04 19 71 19 C71 17.02 71 15.04 71 13 C69.02 13 67.04 13 65 13 C65 10.69 65 8.38 65 6 C62.69 6 60.38 6 58 6 C58 8.31 58 10.62 58 13 C56.02 13 54.04 13 52 13 C52 10.69 52 8.38 52 6 C43.42 6 34.84 6 26 6 C26 12.6 26 19.2 26 26 C19.73 26 13.46 26 7 26 C7 21.71 7 17.42 7 13 C4.69 13 2.38 13 0 13 C0 16.96 0 20.92 0 25 C-1.98 25 -3.96 25 -6 25 C-6 18.73 -6 12.46 -6 6 C-4.02 6 -2.04 6 0 6 C0 4.02 0 2.04 0 0 Z " fill="#92D537" transform="translate(25,19)"/>
<path d="M0 0 C1.98 0 3.96 0 6 0 C6 1.98 6 3.96 6 6 C8.31 6 10.62 6 13 6 C13 8.31 13 10.62 13 13 C19.27 13 25.54 13 32 13 C32 10.69 32 8.38 32 6 C33.98 6 35.96 6 38 6 C38 8.31 38 10.62 38 13 C50.87 13 63.74 13 77 13 C77 10.69 77 8.38 77 6 C78.98 6 80.96 6 83 6 C83 4.02 83 2.04 83 0 C85.31 0 87.62 0 90 0 C90 4.29 90 8.58 90 13 C88.02 13 86.04 13 84 13 C84 14.98 84 16.96 84 19 C58.26 19 32.52 19 6 19 C6 17.02 6 15.04 6 13 C4.02 13 2.04 13 0 13 C0 8.71 0 4.42 0 0 Z " fill="#0A6F2C" transform="translate(19,45)"/>
<path d="M0 0 C2.64 0 5.28 0 8 0 C8 1.98 8 3.96 8 6 C9.98 6 11.96 6 14 6 C14 10.29 14 14.58 14 19 C12.02 19 10.04 19 8 19 C8 21.31 8 23.62 8 26 C-4.87 26 -17.74 26 -31 26 C-31 23.69 -31 21.38 -31 19 C-30.34 19.33 -29.68 19.66 -29 20 C-28.67 20.99 -28.34 21.98 -28 23 C-21.4 23.33 -14.8 23.66 -8 24 C-8 23.01 -8 22.02 -8 21 C-8.721875 21.20625 -9.44375 21.4125 -10.1875 21.625 C-13 22 -13 22 -18 20 C-18 15.38 -18 10.76 -18 6 C-13.05 6 -8.1 6 -3 6 C-2.67 4.68 -2.34 3.36 -2 2 C-1.34 2.33 -0.68 2.66 0 3 C0 2.01 0 1.02 0 0 Z " fill="#49B82A" transform="translate(88,32)"/>
<path d="M0 0 C4.29 0 8.58 0 13 0 C13 4.29 13 8.58 13 13 C29.83 13 46.66 13 64 13 C64 14.98 64 16.96 64 19 C38.59 19 13.18 19 -13 19 C-13 17.02 -13 15.04 -13 13 C-8.71 13 -4.42 13 0 13 C0 8.71 0 4.42 0 0 Z " fill="#65332B" transform="translate(38,90)"/>
<path d="M0 0 C25.41 0 50.82 0 77 0 C77.495 2.475 77.495 2.475 78 5 C80.97 5.495 80.97 5.495 84 6 C84 7.98 84 9.96 84 12 C81.69 12 79.38 12 77 12 C77 10.02 77 8.04 77 6 C76.05008682 6.00222061 75.10017365 6.00444122 74.12147522 6.00672913 C65.18908904 6.02696127 56.25670748 6.04197249 47.32430363 6.05181217 C42.7315736 6.05704082 38.138862 6.06413812 33.54614258 6.07543945 C29.11766312 6.086269 24.68920144 6.09227698 20.26070976 6.09487724 C18.56734372 6.09673137 16.87397871 6.10035175 15.18062019 6.10573006 C12.81708768 6.1129414 10.45362955 6.1139909 8.09008789 6.11352539 C7.38302704 6.11712067 6.67596619 6.12071594 5.94747925 6.12442017 C1.11405216 6.11405216 1.11405216 6.11405216 0 5 C0 3.35 0 1.7 0 0 Z " fill="#251B14" transform="translate(25,13)"/>
<path d="M0 0 C27.72 0 55.44 0 84 0 C83.67 1.98 83.34 3.96 83 6 C57.92 6 32.84 6 7 6 C7 4.35 7 2.7 7 1 C4.69 1 2.38 1 0 1 C0 0.67 0 0.34 0 0 Z " fill="#613229" transform="translate(19,70)"/>
<path d="M0 0 C25.41 0 50.82 0 77 0 C77 1.65 77 3.3 77 5 C60.03205966 5.96763296 43.11735758 6.12165626 26.125 6.0625 C23.57552172 6.05746856 21.02604247 6.0529086 18.4765625 6.04882812 C12.31768653 6.03796749 6.15884805 6.02136302 0 6 C0 4.02 0 2.04 0 0 Z " fill="#2C1B18" transform="translate(25,109)"/>
<path d="M0 0 C2 2 2 2 2.1953125 4.1640625 C2.16050781 5.38222656 2.16050781 5.38222656 2.125 6.625 C2.10695313 7.44226562 2.08890625 8.25953125 2.0703125 9.1015625 C2.04710937 9.72804688 2.02390625 10.35453125 2 11 C4.64 10.67 7.28 10.34 10 10 C9.67 12.31 9.34 14.62 9 17 C32.1 17.33 55.2 17.66 79 18 C79.66 16.68 80.32 15.36 81 14 C81.66 13.34 82.32 12.68 83 12 C84.98 12 86.96 12 89 12 C89 8.04 89 4.08 89 0 C89.33 0 89.66 0 90 0 C90 4.29 90 8.58 90 13 C88.02 13 86.04 13 84 13 C84 14.98 84 16.96 84 19 C58.26 19 32.52 19 6 19 C6 17.02 6 15.04 6 13 C4.02 13 2.04 13 0 13 C0 8.71 0 4.42 0 0 Z " fill="#175D2F" transform="translate(19,45)"/>
<path d="M0 0 C4.29 0 8.58 0 13 0 C13 4.29 13 8.58 13 13 C8.71 13 4.42 13 0 13 C0 8.71 0 4.42 0 0 Z " fill="#6B3529" transform="translate(70,83)"/>
<path d="M0 0 C4.29 0 8.58 0 13 0 C13 4.29 13 8.58 13 13 C8.71 13 4.42 13 0 13 C0 8.71 0 4.42 0 0 Z " fill="#09702D" transform="translate(70,38)"/>
<path d="M0 0 C3.96 0 7.92 0 12 0 C12 6.27 12 12.54 12 19 C10.02 19 8.04 19 6 19 C6 15.04 6 11.08 6 7 C4.02 7 2.04 7 0 7 C0 4.69 0 2.38 0 0 Z " fill="#D59D5B" transform="translate(96,77)"/>
<path d="M0 0 C1.98 0 3.96 0 6 0 C6 1.98 6 3.96 6 6 C4.02 6 2.04 6 0 6 C0 12.6 0 19.2 0 26 C-0.33 26 -0.66 26 -1 26 C-1.33 20.39 -1.66 14.78 -2 9 C-2.99 9.495 -2.99 9.495 -4 10 C-4.06951349 18.92736048 -4.12281799 27.85462778 -4.15543652 36.78219986 C-4.17109187 40.92765106 -4.19232757 45.07291709 -4.22631836 49.21826172 C-4.25891675 53.21883718 -4.276854 57.21923453 -4.28463173 61.21993256 C-4.2901744 62.74617059 -4.30099794 64.27239889 -4.31719017 65.7985611 C-4.33897148 67.93655963 -4.34196673 70.07382241 -4.34057617 72.21191406 C-4.34723801 73.4288092 -4.35389984 74.64570435 -4.36076355 75.8994751 C-3.9734599 79.22809462 -3.26269851 80.58882715 -1 83 C-2.65 83 -4.3 83 -6 83 C-6 57.59 -6 32.18 -6 6 C-4.35 5.67 -2.7 5.34 -1 5 C-0.67 3.35 -0.34 1.7 0 0 Z " fill="#2D170F" transform="translate(19,19)"/>
<path d="M0 0 C1.98 0 3.96 0 6 0 C6 8.25 6 16.5 6 25 C4.02 25 2.04 25 0 25 C0 16.75 0 8.5 0 0 Z " fill="#D39C5B" transform="translate(19,71)"/>
<path d="M0 0 C1.98 0 3.96 0 6 0 C6 8.58 6 17.16 6 26 C5.67 26 5.34 26 5 26 C5 19.73 5 13.46 5 7 C-22.39 7 -49.78 7 -78 7 C-78 5.02 -78 3.04 -78 1 C-77.67 1 -77.34 1 -77 1 C-77 2.65 -77 4.3 -77 6 C-51.92 6 -26.84 6 -1 6 C-1 4.35 -1 2.7 -1 1 C-0.67 0.67 -0.34 0.34 0 0 Z " fill="#793A23" transform="translate(103,70)"/>
<path d="M0 0 C25.41 0 50.82 0 77 0 C77 2.31 77 4.62 77 7 C76.67 7 76.34 7 76 7 C76 5.02 76 3.04 76 1 C51.58 1 27.16 1 2 1 C2 2.98 2 4.96 2 7 C1.67 7.66 1.34 8.32 1 9 C-0.65 9 -2.3 9 -4 9 C-3.90460937 9.56847656 -3.80921875 10.13695312 -3.7109375 10.72265625 C-2.93463642 16.12968355 -3.14112099 19.86074628 -5 25 C-5.33 25 -5.66 25 -6 25 C-6 18.73 -6 12.46 -6 6 C-4.02 6 -2.04 6 0 6 C0 4.02 0 2.04 0 0 Z " fill="#9DC854" transform="translate(25,19)"/>
<path d="M0 0 C1.98 0 3.96 0 6 0 C6 25.74 6 51.48 6 78 C4.02 78 2.04 78 0 78 C0 79.98 0 81.96 0 84 C-1.98 84 -3.96 84 -6 84 C-6 81.69 -6 79.38 -6 77 C-4.35 77 -2.7 77 -1 77 C-1 75.35 -1 73.7 -1 72 C-0.67 72 -0.34 72 0 72 C0 73.65 0 75.3 0 77 C1.65 77 3.3 77 5 77 C5 51.92 5 26.84 5 1 C3.35 1 1.7 1 0 1 C0 0.67 0 0.34 0 0 Z " fill="#3F211C" transform="translate(109,25)"/>
<path d="M0 0 C0.66 0 1.32 0 2 0 C2.72795155 4.20594226 3.04973814 6.80104745 2 11 C17.84 11 33.68 11 50 11 C50 9.35 50 7.7 50 6 C50.33 6 50.66 6 51 6 C51 8.31 51 10.62 51 13 C34.17 13 17.34 13 0 13 C0 8.71 0 4.42 0 0 Z " fill="#A76442" transform="translate(51,90)"/>
<path d="M0 0 C9.93592394 -0.02319241 19.87184142 -0.04095027 29.80778694 -0.05181217 C34.42167239 -0.0570259 39.03553929 -0.06409612 43.64941406 -0.07543945 C48.1038519 -0.086322 52.55827191 -0.09228822 57.01272202 -0.09487724 C58.71032873 -0.09672182 60.40793449 -0.10032379 62.1055336 -0.10573006 C64.48720644 -0.11301173 66.86880607 -0.11398794 69.25048828 -0.11352539 C70.2981411 -0.1189183 70.2981411 -0.1189183 71.36695862 -0.12442017 C75.3483692 -0.11607877 79.09325286 0.23453197 83 1 C83 2.98 83 4.96 83 7 C80.69 7 78.38 7 76 7 C76 5.02 76 3.04 76 1 C50.92 1 25.84 1 0 1 C0 0.67 0 0.34 0 0 Z " fill="#334A03" transform="translate(26,18)"/>
<path d="M0 0 C0.33 0 0.66 0 1 0 C1 8.25 1 16.5 1 25 C2.98 25 4.96 25 7 25 C7 29.29 7 33.58 7 38 C5.02 38 3.04 38 1 38 C0.67 36.35 0.34 34.7 0 33 C-1.65 32.67 -3.3 32.34 -5 32 C-5 31.67 -5 31.34 -5 31 C-3.35 31 -1.7 31 0 31 C0 20.77 0 10.54 0 0 Z " fill="#422615" transform="translate(18,71)"/>
<path d="M0 0 C-0.66 1.98 -1.32 3.96 -2 6 C0.97 6.495 0.97 6.495 4 7 C4 8.98 4 10.96 4 13 C6.46098116 12.94012211 8.91578412 12.85321526 11.375 12.75 C12.07367188 12.73582031 12.77234375 12.72164062 13.4921875 12.70703125 C15.77717646 12.63964218 15.77717646 12.63964218 19 12 C20.56483494 10.08611659 20.56483494 10.08611659 21 8 C21.33 8 21.66 8 22 8 C22 10.31 22 12.62 22 15 C15.73 15 9.46 15 3 15 C3 12.69 3 10.38 3 8 C0.69 8 -1.62 8 -4 8 C-4 6.02 -4 4.04 -4 2 C-5.98 2 -7.96 2 -10 2 C-10 1.67 -10 1.34 -10 1 C-2.25 0 -2.25 0 0 0 Z " fill="#40AE2F" transform="translate(29,43)"/>
<path d="M0 0 C2.31 0 4.62 0 7 0 C6.67 1.98 6.34 3.96 6 6 C4.35 6 2.7 6 1 6 C1 8.31 1 10.62 1 13 C2.98 13 4.96 13 7 13 C7 13.33 7 13.66 7 14 C5.02 14 3.04 14 1 14 C1 15.65 1 17.3 1 19 C-6.59 19 -14.18 19 -22 19 C-22 18.67 -22 18.34 -22 18 C-14.74 18 -7.48 18 0 18 C0 12.06 0 6.12 0 0 Z " fill="#43241F" transform="translate(102,96)"/>
<path d="M0 0 C1.98 0 3.96 0 6 0 C6 1.98 6 3.96 6 6 C4.02 6 2.04 6 0 6 C0 12.6 0 19.2 0 26 C-0.33 26 -0.66 26 -1 26 C-1.33 20.39 -1.66 14.78 -2 9 C-4.33075929 9.95865509 -4.33075929 9.95865509 -6 13 C-6 10.69 -6 8.38 -6 6 C-4.35 5.67 -2.7 5.34 -1 5 C-0.67 3.35 -0.34 1.7 0 0 Z " fill="#33340E" transform="translate(19,19)"/>
<path d="M0 0 C1.98 0 3.96 0 6 0 C6 8.58 6 17.16 6 26 C5.67 26 5.34 26 5 26 C5 19.73 5 13.46 5 7 C3.02 7 1.04 7 -1 7 C-1.04254356 5.00045254 -1.04080783 2.99958364 -1 1 C-0.67 0.67 -0.34 0.34 0 0 Z " fill="#9F6A44" transform="translate(103,70)"/>
<path d="M0 0 C3.63 0 7.26 0 11 0 C10.67 0.66 10.34 1.32 10 2 C8.68 2 7.36 2 6 2 C6.16371094 2.52078125 6.32742187 3.0415625 6.49609375 3.578125 C7.14058659 6.6756875 7.09411589 9.58841094 7.0625 12.75 C7.05347656 13.92046875 7.04445313 15.0909375 7.03515625 16.296875 C7.02355469 17.18890625 7.01195313 18.0809375 7 19 C6.67 19 6.34 19 6 19 C6 15.04 6 11.08 6 7 C4.02 7 2.04 7 0 7 C0 4.69 0 2.38 0 0 Z " fill="#D29456" transform="translate(96,77)"/>
<path d="M0 0 C2 3 2 3 1.625 6.1875 C1.41875 7.115625 1.2125 8.04375 1 9 C-0.65 9 -2.3 9 -4 9 C-3.90460937 9.56847656 -3.80921875 10.13695312 -3.7109375 10.72265625 C-2.93463642 16.12968355 -3.14112099 19.86074628 -5 25 C-5.33 25 -5.66 25 -6 25 C-6 18.73 -6 12.46 -6 6 C-4.02 6 -2.04 6 0 6 C0 4.02 0 2.04 0 0 Z " fill="#99CE4C" transform="translate(25,19)"/>
<path d="M0 0 C4.29 0 8.58 0 13 0 C13 4.29 13 8.58 13 13 C8.71 13 4.42 13 0 13 C0 8.71 0 4.42 0 0 Z M1 1 C0.97311849 2.64574566 0.95365877 4.29161413 0.9375 5.9375 C0.92589844 6.85402344 0.91429688 7.77054688 0.90234375 8.71484375 C0.74050951 10.96593327 0.74050951 10.96593327 2 12 C7.32673036 12.33856828 7.32673036 12.33856828 12 10 C12.25015873 6.41642759 12.25015873 6.41642759 12 3 C8.36576791 0.67409146 5.22911669 0.83734167 1 1 Z " fill="#127C1C" transform="translate(70,38)"/>
<path d="M0 0 C4.29 0 8.58 0 13 0 C13 4.29 13 8.58 13 13 C12.67 13 12.34 13 12 13 C11.67 9.7 11.34 6.4 11 3 C7.58357241 2.74984127 7.58357241 2.74984127 4 3 C1.87491756 6.18762365 1.4979837 8.26512223 1 12 C0.67 12 0.34 12 0 12 C0 8.04 0 4.08 0 0 Z " fill="#703424" transform="translate(38,90)"/>
<path d="M0 0 C0.33 0 0.66 0 1 0 C1 4.29 1 8.58 1 13 C-3.29 13 -7.58 13 -12 13 C-12 11.02 -12 9.04 -12 7 C-11.34 7 -10.68 7 -10 7 C-10 8.32 -10 9.64 -10 11 C-5.545 10.505 -5.545 10.505 -1 10 C-0.67 6.7 -0.34 3.4 0 0 Z " fill="#A36441" transform="translate(37,90)"/>
<path d="M0 0 C1.98 0 3.96 0 6 0 C5.67 1.65 5.34 3.3 5 5 C4.01 5 3.02 5 2 5 C1.34 6.32 0.68 7.64 0 9 C-2.97 8.505 -2.97 8.505 -6 8 C-6 7.34 -6 6.68 -6 6 C-4.02 6 -2.04 6 0 6 C0 4.02 0 2.04 0 0 Z " fill="#147C20" transform="translate(102,45)"/>
<path d="M0 0 C1.98 0 3.96 0 6 0 C6 2.31 6 4.62 6 7 C4.02 7 2.04 7 0 7 C0 4.69 0 2.38 0 0 Z " fill="#66372B" transform="translate(19,96)"/>
<path d="M0 0 C2.31 0 4.62 0 7 0 C7 1.98 7 3.96 7 6 C4.69 6 2.38 6 0 6 C0 4.02 0 2.04 0 0 Z " fill="#87D637" transform="translate(57,32)"/>
<path d="M0 0 C0.33 0 0.66 0 1 0 C1 6.6 1 13.2 1 20 C-5.27 20 -11.54 20 -18 20 C-18 19.67 -18 19.34 -18 19 C-16.85660156 18.93941406 -15.71320312 18.87882812 -14.53515625 18.81640625 C-13.04425695 18.73201572 -11.55337225 18.64736698 -10.0625 18.5625 C-9.30775391 18.52318359 -8.55300781 18.48386719 -7.77539062 18.44335938 C-4.08055813 18.55961976 -4.08055813 18.55961976 -1 17 C-0.76298761 14.14122091 -0.57780818 11.30116703 -0.4375 8.4375 C-0.39431641 7.63119141 -0.35113281 6.82488281 -0.30664062 5.99414062 C-0.20024738 3.99631195 -0.09959112 1.9981793 0 0 Z " fill="#7BD235" transform="translate(50,25)"/>
<path d="M0 0 C2.31 0 4.62 0 7 0 C6.67 1.98 6.34 3.96 6 6 C4.02 6.33 2.04 6.66 0 7 C0 4.69 0 2.38 0 0 Z " fill="#6C3B2D" transform="translate(102,96)"/>
<path d="M0 0 C1.98 0 3.96 0 6 0 C6 1.98 6 3.96 6 6 C4.02 6 2.04 6 0 6 C0 4.02 0 2.04 0 0 Z " fill="#2B1B15" transform="translate(103,103)"/>
<path d="M0 0 C1.98 0 3.96 0 6 0 C6 1.98 6 3.96 6 6 C4.02 6 2.04 6 0 6 C0 4.02 0 2.04 0 0 Z " fill="#6A3425" transform="translate(90,90)"/>
<path d="M0 0 C1.98 0 3.96 0 6 0 C6 1.98 6 3.96 6 6 C4.02 6 2.04 6 0 6 C0 4.02 0 2.04 0 0 Z " fill="#D6995A" transform="translate(32,77)"/>
<path d="M0 0 C1.98 0 3.96 0 6 0 C6 1.98 6 3.96 6 6 C4.02 6 2.04 6 0 6 C0 4.02 0 2.04 0 0 Z " fill="#AD6D42" transform="translate(19,71)"/>
<path d="M0 0 C1.98 0 3.96 0 6 0 C6 1.98 6 3.96 6 6 C4.02 6 2.04 6 0 6 C0 4.02 0 2.04 0 0 Z " fill="#25200B" transform="translate(19,19)"/>
<path d="M0 0 C1.98 0 3.96 0 6 0 C6 1.98 6 3.96 6 6 C4.02 6 2.04 6 0 6 C0 4.02 0 2.04 0 0 Z " fill="#281D0F" transform="translate(103,19)"/>
<path d="M0 0 C-0.66 1.98 -1.32 3.96 -2 6 C-0.35 6.33 1.3 6.66 3 7 C3 7.33 3 7.66 3 8 C0.69 8 -1.62 8 -4 8 C-4 6.02 -4 4.04 -4 2 C-5.98 2 -7.96 2 -10 2 C-10 1.67 -10 1.34 -10 1 C-2.25 0 -2.25 0 0 0 Z " fill="#4CB336" transform="translate(29,43)"/>
<path d="M0 0 C1.32 0.33 2.64 0.66 4 1 C3.67 1.78375 3.34 2.5675 3 3.375 C1.72589829 7.99361869 1.83076064 12.24249356 2 17 C1.34 17.33 0.68 17.66 0 18 C0 12.06 0 6.12 0 0 Z " fill="#59BA1F" transform="translate(51,26)"/>
<path d="M0 0 C1.98 0 3.96 0 6 0 C6 1.98 6 3.96 6 6 C5.67 4.68 5.34 3.36 5 2 C4.01 2 3.02 2 2 2 C2.33 3.32 2.66 4.64 3 6 C2.01 6.33 1.02 6.66 0 7 C0 4.69 0 2.38 0 0 Z " fill="#0E761B" transform="translate(51,51)"/>
<path d="M0 0 C2.31 0 4.62 0 7 0 C7 1.98 7 3.96 7 6 C5.83054208 5.19152271 4.66449539 4.37810888 3.5 3.5625 C2.8503125 3.11003906 2.200625 2.65757813 1.53125 2.19140625 C1.0259375 1.79824219 0.520625 1.40507813 0 1 C0 0.67 0 0.34 0 0 Z " fill="#157A21" transform="translate(25,51)"/>
<path d="M0 0 C1.65 0 3.3 0 5 0 C4.67 1.65 4.34 3.3 4 5 C2.68 5 1.36 5 0 5 C0 3.35 0 1.7 0 0 Z " fill="#097121" transform="translate(103,45)"/>
<path d="M0 0 C0.99 0.66 1.98 1.32 3 2 C3 2.66 3 3.32 3 4 C-1.29 4 -5.58 4 -10 4 C-9.67 3.01 -9.34 2.02 -9 1 C-9 1.66 -9 2.32 -9 3 C-6.03 3 -3.06 3 0 3 C0 2.01 0 1.02 0 0 Z " fill="#49B832" transform="translate(80,34)"/>
<path d="M0 0 C1.98 0.495 1.98 0.495 4 1 C4 1.99 4 2.98 4 4 C2.35 4 0.7 4 -1 4 C-0.67 2.68 -0.34 1.36 0 0 Z " fill="#231C15" transform="translate(20,104)"/>
<path d="M0 0 C2 3 2 3 1.625 5.6875 C1.41875 6.450625 1.2125 7.21375 1 8 C-1.31 7.67 -3.62 7.34 -6 7 C-6 6.67 -6 6.34 -6 6 C-4.02 6 -2.04 6 0 6 C0 4.02 0 2.04 0 0 Z " fill="#83A843" transform="translate(25,19)"/>
</svg>
