<?xml version="1.0" encoding="UTF-8"?>
<svg version="1.1" xmlns="http://www.w3.org/2000/svg" width="500" height="500">
<path d="M0 0 C3.94494177 0.0070698 7.88980481 -0.00906422 11.8347224 -0.02199733 C19.53965463 -0.04351478 27.24443847 -0.04354201 34.94939081 -0.03537179 C41.2192949 -0.02904258 47.4891561 -0.03023542 53.75905979 -0.03664386 C54.65532555 -0.03754552 55.55159132 -0.03844717 56.47501665 -0.03937615 C58.29645069 -0.04122757 60.11788472 -0.04309014 61.93931874 -0.04496371 C78.97658963 -0.06149985 96.01377743 -0.05285912 113.05104329 -0.03597813 C128.59424752 -0.02128892 144.13725829 -0.03590606 159.6804376 -0.06474829 C175.69001556 -0.09423179 191.69950452 -0.10508832 207.70910841 -0.09556609 C209.52433267 -0.09454368 211.33955694 -0.09354906 213.15478122 -0.09258258 C214.49403404 -0.091868 214.49403404 -0.091868 215.86034248 -0.09113898 C222.11146869 -0.08898643 228.36250951 -0.09871686 234.61361682 -0.11335361 C242.2480646 -0.13098201 249.88226616 -0.13061063 257.51670472 -0.10800195 C261.40201831 -0.09695351 265.28689985 -0.09347963 269.17219341 -0.11230266 C289.74143178 -0.20463904 310.21306764 0.29381349 328.65764415 10.53755772 C329.63733165 11.06220616 330.61701915 11.5868546 331.62639415 12.12740147 C355.95613652 25.67464438 372.73021377 47.08807914 380.64983165 73.58833897 C380.99541259 74.90224659 381.3310014 76.21881441 381.65764415 77.53755772 C381.83131686 78.230807 382.00498957 78.92405628 382.18392509 79.63831311 C383.79262129 86.77884114 383.94618762 93.6766227 383.93179882 100.97501194 C383.93625943 102.31336389 383.94157616 103.6517132 383.94766754 104.99005872 C383.96176009 108.64385606 383.9635125 112.29756798 383.96307063 115.9513886 C383.96472668 119.90190764 383.97780808 123.85239228 383.98926342 127.8028928 C384.01205483 136.4315342 384.02002818 145.06015091 384.02508986 153.68881834 C384.02835468 159.08586772 384.034882 164.48291003 384.04209125 169.87995541 C384.06165204 184.84869511 384.07805847 199.81742826 384.08096778 214.78618157 C384.08115535 215.74298882 384.08134292 216.69979608 384.08153618 217.68559749 C384.08190241 219.62495732 384.08226611 221.56431716 384.08262729 223.50367699 C384.0828101 224.46626632 384.08299291 225.42885565 384.08318126 226.42061436 C384.08345209 227.86627968 384.08345209 227.86627968 384.08372838 229.34115037 C384.08726544 244.93658476 384.11426087 260.53188068 384.15167915 276.1272671 C384.18986628 292.17273853 384.20912603 308.21814146 384.2094273 324.2636593 C384.21000964 333.25884492 384.21835655 342.25386547 384.24742496 351.2490083 C384.27207886 358.9129085 384.27912837 366.57658345 384.26417743 374.24051271 C384.25706444 378.14198703 384.25761898 382.04301788 384.28058803 385.94444096 C384.47088411 420.37170079 378.19437944 447.26225849 353.65764415 472.53755772 C338.07034385 488.17698946 315.26983969 499.64517832 292.85221571 500.66520822 C291.87839002 500.66645472 290.90456434 500.66770122 289.90122879 500.66898549 C288.76991281 500.67282663 287.63859684 500.67666778 286.47299856 500.68062532 C285.24004016 500.67975884 284.00708175 500.67889235 282.73676097 500.67799962 C280.76033993 500.6824563 280.76033993 500.6824563 278.7439912 500.68700302 C275.09239266 500.69505283 271.44081381 500.69686147 267.78920746 500.69760048 C263.84828857 500.69945463 259.9073798 500.70700391 255.96646678 500.7137357 C247.35038863 500.72730648 238.73431514 500.73334214 230.11822808 500.73774636 C224.73398049 500.74051162 219.34973469 500.74474956 213.96548831 500.74925053 C199.04665192 500.76144291 184.12781695 500.77174141 169.20897567 500.77512562 C167.77719284 500.77545497 167.77719284 500.77545497 166.3164851 500.77579097 C165.35972244 500.77600925 164.40295979 500.77622753 163.41720432 500.77645242 C161.4785521 500.77689588 159.53989988 500.77734245 157.60124767 500.7777921 C156.15880039 500.77812424 156.15880039 500.77812424 154.68721276 500.7784631 C139.11984378 500.78240759 123.55252172 500.79985111 107.98517085 500.82315162 C91.98732105 500.84690232 75.98949474 500.85932921 59.99162704 500.86049354 C51.01561951 500.86140836 42.03967307 500.86711155 33.06368244 500.88531315 C25.41712362 500.90076459 17.77064475 500.90580509 10.12407327 500.89757505 C6.22752531 500.89368596 2.33113811 500.89451214 -1.56538975 500.9086324 C-5.142896 500.92147712 -8.72012244 500.92008259 -12.29762889 500.90804169 C-14.18310383 500.90519463 -16.0685841 500.91693999 -17.95401961 500.92946374 C-45.50054052 500.7722681 -69.47071143 489.05732903 -89.02985585 470.16255772 C-107.27729704 451.45380481 -116.6747961 426.93230146 -116.60978138 400.99725926 C-116.61352449 399.64780739 -116.61812863 398.29835769 -116.62351203 396.94891137 C-116.63567623 393.26458388 -116.63548938 389.58034764 -116.63312328 385.89600468 C-116.63271343 381.91284561 -116.64377037 377.92971514 -116.65323842 373.94656956 C-116.66981407 366.15101467 -116.67534644 358.35549004 -116.67646317 350.55991899 C-116.67741544 344.21828895 -116.68153463 337.87666883 -116.68786442 331.53504193 C-116.70546876 313.52952532 -116.71470475 295.52403251 -116.71320347 277.51850723 C-116.71312356 276.54889302 -116.71304365 275.5792788 -116.71296132 274.58028233 C-116.71287955 273.60947498 -116.71279779 272.63866763 -116.71271355 271.63844187 C-116.71190126 255.91746213 -116.73102688 240.19657834 -116.75923805 224.47562634 C-116.78802001 208.30813343 -116.80177537 192.14068723 -116.8000505 175.97316808 C-116.79938835 166.90659706 -116.80480337 157.8401266 -116.8264066 148.77357876 C-116.84468861 141.05176048 -116.84890858 133.33008829 -116.83538775 125.60825764 C-116.82889283 121.67493725 -116.82861348 117.74189656 -116.84609425 113.80860341 C-116.97271805 83.44149542 -116.97271805 83.44149542 -112.34235585 69.53755772 C-112.06210749 68.69441738 -111.78185914 67.85127703 -111.49311841 66.98258698 C-103.52743147 45.36040688 -89.41493842 28.14584513 -70.34235585 15.53755772 C-69.54958241 15.01033116 -68.75680897 14.4831046 -67.9400121 13.93990147 C-46.90834456 0.61189174 -24.07495851 -0.06999076 0 0 Z " fill="#D6A877" transform="translate(116.3423558473587,-0.5375577211380005)"/>
<path d="M0 0 C12.54 0 25.08 0 38 0 C38 3.96 38 7.92 38 12 C41.96 12 45.92 12 50 12 C50 20.58 50 29.16 50 38 C58.91 38 67.82 38 77 38 C77 50.87 77 63.74 77 77 C89.87 77 102.74 77 116 77 C116 80.96 116 84.92 116 89 C119.96 89 123.92 89 128 89 C128 92.96 128 96.92 128 101 C131.96 101 135.92 101 140 101 C140 105.62 140 110.24 140 115 C144.62 115 149.24 115 154 115 C154 77.05 154 39.1 154 0 C166.87 0 179.74 0 193 0 C193 3.96 193 7.92 193 12 C196.96 12 200.92 12 205 12 C205 75.69 205 139.38 205 205 C192.13 205 179.26 205 166 205 C166 201.04 166 197.08 166 193 C162.04 193 158.08 193 154 193 C154 180.13 154 167.26 154 154 C141.13 154 128.26 154 115 154 C115 145.42 115 136.84 115 128 C106.42 128 97.84 128 89 128 C89 124.04 89 120.08 89 116 C85.04 116 81.08 116 77 116 C77 107.09 77 98.18 77 89 C68.09 89 59.18 89 50 89 C50 127.28 50 165.56 50 205 C37.46 205 24.92 205 12 205 C12 201.04 12 197.08 12 193 C8.04 193 4.08 193 0 193 C0 129.31 0 65.62 0 0 Z " fill="#231F2F" transform="translate(43,144)"/>
<path d="M0 0 C12.87 0 25.74 0 39 0 C39 3.96 39 7.92 39 12 C42.96 12 46.92 12 51 12 C51 15.96 51 19.92 51 24 C54.96 24 58.92 24 63 24 C63 75.15 63 126.3 63 179 C50.13 179 37.26 179 24 179 C24 191.54 24 204.08 24 217 C-14.28 217 -52.56 217 -92 217 C-92 213.04 -92 209.08 -92 205 C-95.96 205 -99.92 205 -104 205 C-104 201.04 -104 197.08 -104 193 C-107.96 193 -111.92 193 -116 193 C-116 188.05 -116 183.1 -116 178 C-120.62 178 -125.24 178 -130 178 C-130 174.04 -130 170.08 -130 166 C-133.96 166 -137.92 166 -142 166 C-142 162.04 -142 158.08 -142 154 C-146.29 154 -150.58 154 -155 154 C-155 128.59 -155 103.18 -155 77 C-142.13 77 -129.26 77 -116 77 C-116 80.96 -116 84.92 -116 89 C-112.04 89 -108.08 89 -104 89 C-104 110.45 -104 131.9 -104 154 C-69.68 154 -35.36 154 0 154 C0 103.18 0 52.36 0 0 Z " fill="#9D7E61" transform="translate(419,144)"/>
<path d="M0 0 C12.87 0 25.74 0 39 0 C39 3.96 39 7.92 39 12 C42.96 12 46.92 12 51 12 C51 33.45 51 54.9 51 77 C85.32 77 119.64 77 155 77 C155 84.92 155 92.84 155 101 C158.96 101 162.92 101 167 101 C167 109.91 167 118.82 167 128 C128.72 128 90.44 128 51 128 C51 124.04 51 120.08 51 116 C47.04 116 43.08 116 39 116 C39 111.05 39 106.1 39 101 C34.38 101 29.76 101 25 101 C25 97.04 25 93.08 25 89 C21.04 89 17.08 89 13 89 C13 85.04 13 81.08 13 77 C8.71 77 4.42 77 0 77 C0 51.59 0 26.18 0 0 Z " fill="#24202F" transform="translate(264,221)"/>
<path d="M0 0 C12.54 0 25.08 0 38 0 C38 3.96 38 7.92 38 12 C41.96 12 45.92 12 50 12 C50 20.58 50 29.16 50 38 C58.91 38 67.82 38 77 38 C77 50.87 77 63.74 77 77 C64.13 77 51.26 77 38 77 C38 115.28 38 153.56 38 193 C25.46 193 12.92 193 0 193 C0 129.31 0 65.62 0 0 Z " fill="#221F2F" transform="translate(43,144)"/>
<path d="M0 0 C12.54 0 25.08 0 38 0 C38 50.82 38 101.64 38 154 C25.46 154 12.92 154 0 154 C0 103.18 0 52.36 0 0 Z " fill="#221F2E" transform="translate(419,144)"/>
<path d="M0 0 C3.96 0 7.92 0 12 0 C12 63.69 12 127.38 12 193 C-0.87 193 -13.74 193 -27 193 C-27 189.04 -27 185.08 -27 181 C-18.09 181 -9.18 181 0 181 C0 121.27 0 61.54 0 0 Z " fill="#5F4E48" transform="translate(236,156)"/>
<path d="M0 0 C3.96 0 7.92 0 12 0 C12 63.69 12 127.38 12 193 C-0.54 193 -13.08 193 -26 193 C-26 189.04 -26 185.08 -26 181 C-17.42 181 -8.84 181 0 181 C0 121.27 0 61.54 0 0 Z " fill="#9E7F61" transform="translate(248,168)"/>
<path d="M0 0 C0.33 0 0.66 0 1 0 C1 3.96 1 7.92 1 12 C4.96 12 8.92 12 13 12 C13 62.82 13 113.64 13 166 C0.13 166 -12.74 166 -26 166 C-26 162.04 -26 158.08 -26 154 C-17.42 154 -8.84 154 0 154 C0 103.18 0 52.36 0 0 Z " fill="#5D4D46" transform="translate(457,144)"/>
<path d="M0 0 C12.87 0 25.74 0 39 0 C39 3.96 39 7.92 39 12 C30.09 12 21.18 12 12 12 C12 50.28 12 88.56 12 128 C-0.54 128 -13.08 128 -26 128 C-26 124.04 -26 120.08 -26 116 C-17.42 116 -8.84 116 0 116 C0 77.72 0 39.44 0 0 Z " fill="#5E4E48" transform="translate(81,221)"/>
<path d="M0 0 C8.91 0 17.82 0 27 0 C27 3.96 27 7.92 27 12 C22.38 12 17.76 12 13 12 C13 50.28 13 88.56 13 128 C0.13 128 -12.74 128 -26 128 C-26 124.04 -26 120.08 -26 116 C-17.42 116 -8.84 116 0 116 C0 77.72 0 39.44 0 0 Z " fill="#9D7F61" transform="translate(93,233)"/>
<path d="M0 0 C3.96 0 7.92 0 12 0 C12 8.91 12 17.82 12 27 C-26.28 27 -64.56 27 -104 27 C-104 23.04 -104 19.08 -104 15 C-69.68 15 -35.36 15 0 15 C0 10.05 0 5.1 0 0 Z " fill="#604E48" transform="translate(419,322)"/>
<path d="M0 0 C12.54 0 25.08 0 38 0 C38 12.54 38 25.08 38 38 C25.46 38 12.92 38 0 38 C0 25.46 0 12.92 0 0 Z " fill="#221F2E" transform="translate(120,221)"/>
<path d="M0 0 C0.33 0 0.66 0 1 0 C1 3.96 1 7.92 1 12 C4.96 12 8.92 12 13 12 C13 15.96 13 19.92 13 24 C16.96 24 20.92 24 25 24 C25 28.62 25 33.24 25 38 C29.62 38 34.24 38 39 38 C39 38.33 39 38.66 39 39 C26.46 39 13.92 39 1 39 C1 51.54 1 64.08 1 77 C0.67 77 0.34 77 0 77 C0 68.42 0 59.84 0 51 C-8.58 51 -17.16 51 -26 51 C-26 47.04 -26 43.08 -26 39 C-29.96 39 -33.92 39 -38 39 C-38 38.67 -38 38.34 -38 38 C-25.46 38 -12.92 38 0 38 C0 25.46 0 12.92 0 0 Z " fill="#604F49" transform="translate(158,221)"/>
<path d="M0 0 C3.96 0 7.92 0 12 0 C12 21.45 12 42.9 12 65 C8.04 65 4.08 65 0 65 C0 43.55 0 22.1 0 0 Z " fill="#5F4E48" transform="translate(303,233)"/>
<path d="M0 0 C0.33 0 0.66 0 1 0 C1 51.15 1 102.3 1 155 C-50 155 -50 155 -62 154 C-62 146.08 -62 138.16 -62 130 C-58.04 130 -54.08 130 -50 130 C-50 133.96 -50 137.92 -50 142 C-46.04 142 -42.08 142 -38 142 C-38 145.96 -38 149.92 -38 154 C-25.79 154 -13.58 154 -1 154 C-0.505 77.77 -0.505 77.77 0 0 Z " fill="#AF8963" transform="translate(481,168)"/>
<path d="M0 0 C3.96 0 7.92 0 12 0 C12 17.49 12 34.98 12 53 C8.04 53 4.08 53 0 53 C0 35.51 0 18.02 0 0 Z " fill="#9D7E61" transform="translate(315,245)"/>
<path d="M0 0 C3.96 0 7.92 0 12 0 C12 4.29 12 8.58 12 13 C15.96 13 19.92 13 24 13 C24 17.62 24 22.24 24 27 C16.08 27 8.16 27 0 27 C0 18.09 0 9.18 0 0 Z " fill="#5F4E48" transform="translate(120,194)"/>
<path d="M0 0 C8.58 0 17.16 0 26 0 C26 7.92 26 15.84 26 24 C21.38 24 16.76 24 12 24 C12 20.04 12 16.08 12 12 C8.04 12 4.08 12 0 12 C0 8.04 0 4.08 0 0 Z " fill="#5D4E48" transform="translate(277,298)"/>
<path d="M0 0 C8.58 0 17.16 0 26 0 C26 7.92 26 15.84 26 24 C21.38 24 16.76 24 12 24 C12 20.04 12 16.08 12 12 C8.04 12 4.08 12 0 12 C0 8.04 0 4.08 0 0 Z " fill="#5E4D48" transform="translate(171,298)"/>
<path d="M0 0 C0.33 0 0.66 0 1 0 C1 3.96 1 7.92 1 12 C4.96 12 8.92 12 13 12 C13 15.96 13 19.92 13 24 C16.96 24 20.92 24 25 24 C25 28.62 25 33.24 25 38 C20.71 38 16.42 38 12 38 C12 33.38 12 28.76 12 24 C8.04 24 4.08 24 0 24 C0 16.08 0 8.16 0 0 Z " fill="#7C6452" transform="translate(158,221)"/>
<path d="M0 0 C3.96 0 7.92 0 12 0 C12 63.69 12 127.38 12 193 C11.34 192.67 10.68 192.34 10 192 C10.33 132.6 10.66 73.2 11 12 C7.37 12 3.74 12 0 12 C0 8.04 0 4.08 0 0 Z " fill="#6B5447" transform="translate(236,156)"/>
<path d="M0 0 C3.96 0 7.92 0 12 0 C12 8.58 12 17.16 12 26 C8.04 26 4.08 26 0 26 C0 17.42 0 8.84 0 0 Z " fill="#5E4E47" transform="translate(81,156)"/>
<path d="M0 0 C0.33 0 0.66 0 1 0 C1 3.96 1 7.92 1 12 C4.96 12 8.92 12 13 12 C13 62.82 13 113.64 13 166 C12.67 166 12.34 166 12 166 C12 119.14 12 72.28 12 24 C8.04 24 4.08 24 0 24 C0 16.08 0 8.16 0 0 Z " fill="#786152" transform="translate(457,144)"/>
<path d="M0 0 C3.96 0 7.92 0 12 0 C12 7.92 12 15.84 12 24 C8.04 24 4.08 24 0 24 C0 16.08 0 8.16 0 0 Z " fill="#7D6553" transform="translate(419,298)"/>
<path d="M0 0 C0.33 0 0.66 0 1 0 C1 37.95 1 75.9 1 115 C-3.62 115 -8.24 115 -13 115 C-12.67 114.01 -12.34 113.02 -12 112 C-12 112.66 -12 113.32 -12 114 C-8.7 114 -5.4 114 -2 114 C-1.98969254 112.586548 -1.97938507 111.17309601 -1.96876526 109.71681213 C-1.87121803 96.4283991 -1.76856163 83.14003388 -1.66066074 69.85170078 C-1.60531349 63.01923417 -1.55182908 56.18676233 -1.50268555 49.35424805 C-1.45529811 42.76660723 -1.40277841 36.17902051 -1.34705925 29.59144402 C-1.32660102 27.0719327 -1.30789383 24.55240657 -1.29092598 22.03286934 C-1.26695848 18.51738219 -1.23689381 15.00199815 -1.20532227 11.48657227 C-1.1995668 10.43353409 -1.19381134 9.38049591 -1.18788147 8.29554749 C-1.17809265 7.34337341 -1.16830383 6.39119934 -1.15821838 5.41017151 C-1.15176583 4.57779244 -1.14531328 3.74541338 -1.1386652 2.88781071 C-1 1 -1 1 0 0 Z " fill="#CEAA88" transform="translate(196,144)"/>
<path d="M0 0 C0.33 0 0.66 0 1 0 C1 3.63 1 7.26 1 11 C4.96 11 8.92 11 13 11 C13 15.29 13 19.58 13 24 C16.96 24 20.92 24 25 24 C25 28.62 25 33.24 25 38 C20.71 38 16.42 38 12 38 C12 29.42 12 20.84 12 12 C8.04 12 4.08 12 0 12 C0 8.04 0 4.08 0 0 Z " fill="#A18264" transform="translate(81,144)"/>
<path d="M0 0 C4.62 0 9.24 0 14 0 C14 3.96 14 7.92 14 12 C9.38 12 4.76 12 0 12 C0 8.04 0 4.08 0 0 Z " fill="#9B7D61" transform="translate(289,310)"/>
<path d="M0 0 C4.62 0 9.24 0 14 0 C14 3.96 14 7.92 14 12 C9.38 12 4.76 12 0 12 C0 8.04 0 4.08 0 0 Z " fill="#9C7D61" transform="translate(183,310)"/>
<path d="M0 0 C4.62 0 9.24 0 14 0 C14 3.96 14 7.92 14 12 C9.38 12 4.76 12 0 12 C0 8.04 0 4.08 0 0 Z " fill="#9F7F61" transform="translate(144,272)"/>
<path d="M0 0 C7.92 0 15.84 0 24 0 C24 4.29 24 8.58 24 13 C20.04 13 16.08 13 12 13 C12 9.04 12 5.08 12 1 C8.04 1 4.08 1 0 1 C0 0.67 0 0.34 0 0 Z " fill="#7A6252" transform="translate(120,259)"/>
<path d="M0 0 C3.96 0 7.92 0 12 0 C12 4.62 12 9.24 12 14 C8.04 14 4.08 14 0 14 C0 9.38 0 4.76 0 0 Z " fill="#A08062" transform="translate(171,245)"/>
<path d="M0 0 C3.96 0 7.92 0 12 0 C12 4.62 12 9.24 12 14 C8.04 14 4.08 14 0 14 C0 9.38 0 4.76 0 0 Z " fill="#9D7E63" transform="translate(132,207)"/>
<path d="M0 0 C3.96 0 7.92 0 12 0 C12 4.29 12 8.58 12 13 C8.04 13 4.08 13 0 13 C0 8.71 0 4.42 0 0 Z " fill="#7E6553" transform="translate(120,194)"/>
<path d="M0 0 C3.96 0 7.92 0 12 0 C12 3.96 12 7.92 12 12 C8.04 12 4.08 12 0 12 C0 8.04 0 4.08 0 0 Z " fill="#7A6457" transform="translate(315,337)"/>
<path d="M0 0 C3.96 0 7.92 0 12 0 C12 3.96 12 7.92 12 12 C8.04 12 4.08 12 0 12 C0 8.04 0 4.08 0 0 Z " fill="#7D6453" transform="translate(209,337)"/>
<path d="M0 0 C3.96 0 7.92 0 12 0 C12 3.96 12 7.92 12 12 C8.04 12 4.08 12 0 12 C0 8.04 0 4.08 0 0 Z " fill="#7C6352" transform="translate(55,337)"/>
<path d="M0 0 C3.96 0 7.92 0 12 0 C12 3.96 12 7.92 12 12 C8.04 12 4.08 12 0 12 C0 8.04 0 4.08 0 0 Z " fill="#D2A77A" transform="translate(431,310)"/>
<path d="M0 0 C3.96 0 7.92 0 12 0 C12 3.96 12 7.92 12 12 C8.04 12 4.08 12 0 12 C0 8.04 0 4.08 0 0 Z " fill="#D6A978" transform="translate(419,298)"/>
<path d="M0 0 C3.96 0 7.92 0 12 0 C12 3.96 12 7.92 12 12 C8.04 12 4.08 12 0 12 C0 8.04 0 4.08 0 0 Z " fill="#7B6355" transform="translate(303,233)"/>
<path d="M0 0 C3.96 0 7.92 0 12 0 C12 3.96 12 7.92 12 12 C8.04 12 4.08 12 0 12 C0 8.04 0 4.08 0 0 Z " fill="#7B6354" transform="translate(236,156)"/>
<path d="M0 0 C3.96 0 7.92 0 12 0 C12 3.96 12 7.92 12 12 C8.04 12 4.08 12 0 12 C0 8.04 0 4.08 0 0 Z " fill="#7A6252" transform="translate(81,156)"/>
<path d="M0 0 C3.96 0 7.92 0 12 0 C12 3.63 12 7.26 12 11 C8.04 11 4.08 11 0 11 C0 7.37 0 3.74 0 0 Z " fill="#7B6452" transform="translate(431,299)"/>
<path d="M0 0 C3.96 0 7.92 0 12 0 C12 3.63 12 7.26 12 11 C8.04 11 4.08 11 0 11 C0 7.37 0 3.74 0 0 Z " fill="#7A6354" transform="translate(277,299)"/>
<path d="M0 0 C3.96 0 7.92 0 12 0 C12 3.63 12 7.26 12 11 C8.04 11 4.08 11 0 11 C0 7.37 0 3.74 0 0 Z " fill="#7B6352" transform="translate(171,299)"/>
<path d="M0 0 C0.33 0 0.66 0 1 0 C1 4.62 1 9.24 1 14 C13.54 14 26.08 14 39 14 C39 14.33 39 14.66 39 15 C26.46 15 13.92 15 1 15 C1 27.54 1 40.08 1 53 C0.67 53 0.34 53 0 53 C0 40.46 0 27.92 0 15 C-4.62 15 -9.24 15 -14 15 C-14 14.67 -14 14.34 -14 14 C-9.38 14 -4.76 14 0 14 C0 9.38 0 4.76 0 0 Z " fill="#554643" transform="translate(158,245)"/>
<path d="M0 0 C12.54 0 25.08 0 38 0 C38 7.59 38 15.18 38 23 C37.67 23 37.34 23 37 23 C36.82706593 21.37565503 36.66209596 19.7504623 36.5 18.125 C36.4071875 17.22007812 36.314375 16.31515625 36.21875 15.3828125 C35.9308457 10.93057808 36 6.46153339 36 2 C20.16 2.495 20.16 2.495 4 3 C4 2.34 4 1.68 4 1 C2.68 1.33 1.36 1.66 0 2 C0 1.34 0 0.68 0 0 Z " fill="#2D1E1D" transform="translate(265,221)"/>
<path d="M0 0 C0.99 0.495 0.99 0.495 2 1 C2 3.97 2 6.94 2 10 C4.31 9.34 6.62 8.68 9 8 C9.67801034 5.09926819 9.67801034 5.09926819 10 2 C9.34 1.34 8.68 0.68 8 0 C9.32 0 10.64 0 12 0 C12 3.63 12 7.26 12 11 C8.04 11 4.08 11 0 11 C0 7.37 0 3.74 0 0 Z " fill="#CEAB83" transform="translate(419,299)"/>
<path d="M0 0 C0.99 0.33 1.98 0.66 3 1 C3 3.97 3 6.94 3 10 C5.97 10 8.94 10 12 10 C12 10.66 12 11.32 12 12 C8.04 12 4.08 12 0 12 C0 8.04 0 4.08 0 0 Z " fill="#83654B" transform="translate(315,337)"/>
<path d="M0 0 C3.96 0 7.92 0 12 0 C11.34 0.66 10.68 1.32 10 2 C10.31229724 3.33841672 10.64830932 4.67139075 11 6 C10.5625 8.25 10.5625 8.25 10 10 C8.68 9.67 7.36 9.34 6 9 C6 7.02 6 5.04 6 3 C4.02 2.34 2.04 1.68 0 1 C0 0.67 0 0.34 0 0 Z " fill="#C79F73" transform="translate(419,298)"/>
<path d="M0 0 C2.97 0 5.94 0 9 0 C9 4.29 9 8.58 9 13 C6.60236815 10.60236815 6.65719414 9.66726502 6.375 6.375 C6.30023438 5.55773437 6.22546875 4.74046875 6.1484375 3.8984375 C6.07496094 2.95871094 6.07496094 2.95871094 6 2 C4.68 2.33 3.36 2.66 2 3 C1.34 2.01 0.68 1.02 0 0 Z " fill="#CCA784" transform="translate(294,323)"/>
<path d="M0 0 C0.66 0 1.32 0 2 0 C0.51272258 4.90801549 -2.44635485 8.40491293 -6 12 C-6.33 12 -6.66 12 -7 12 C-7 10.35 -7 8.7 -7 7 C-6.360625 6.731875 -5.72125 6.46375 -5.0625 6.1875 C-2.66868314 5.11332248 -2.66868314 5.11332248 -2 2 C-1.34 2 -0.68 2 0 2 C0 1.34 0 0.68 0 0 Z " fill="#C7A57D" transform="translate(481,455)"/>
<path d="M0 0 C0.66 0.33 1.32 0.66 2 1 C1.34 1.928125 0.68 2.85625 0 3.8125 C-2.26574554 6.79636556 -2.26574554 6.79636556 -2 10 C-3.9375 9.6875 -3.9375 9.6875 -6 9 C-6.33 8.01 -6.66 7.02 -7 6 C-4.69 4.02 -2.38 2.04 0 0 Z " fill="#CAA57B" transform="translate(41,18)"/>
<path d="M0 0 C0.66 0 1.32 0 2 0 C3.125 6.75 3.125 6.75 2 9 C5.3 9.33 8.6 9.66 12 10 C12 10.33 12 10.66 12 11 C8.04 11 4.08 11 0 11 C0 7.37 0 3.74 0 0 Z " fill="#7F6249" transform="translate(277,299)"/>
<path d="M0 0 C0.33 0 0.66 0 1 0 C1 1.65 1 3.3 1 5 C0.01 5.33 -0.98 5.66 -2 6 C-2.33 8.31 -2.66 10.62 -3 13 C-3.99 13 -4.98 13 -6 13 C-4.58707905 8.1725201 -2.57025846 4.2837641 0 0 Z " fill="#C7A57D" transform="translate(14,48)"/>
<path d="M0 0 C0.5775 0.78375 1.155 1.5675 1.75 2.375 C3.72472742 5.0613237 3.72472742 5.0613237 6.125 5.9375 C8 7 8 7 9.25 10.125 C9.4975 11.07375 9.745 12.0225 10 13 C5.86378916 9.6189962 2.18683431 6.33409466 -1 2 C-0.67 1.34 -0.34 0.68 0 0 Z " fill="#C5A57C" transform="translate(22,460)"/>
<path d="M0 0 C0.99 0 1.98 0 3 0 C3 4.29 3 8.58 3 13 C2.34 12.67 1.68 12.34 1 12 C0.5859375 9.27734375 0.5859375 9.27734375 0.375 5.9375 C0.30023438 4.83277344 0.22546875 3.72804688 0.1484375 2.58984375 C0.09945312 1.73519531 0.05046875 0.88054687 0 0 Z " fill="#CFAA89" transform="translate(194,323)"/>
<path d="M0 0 C0.33 0 0.66 0 1 0 C1 3.96 1 7.92 1 12 C0.01 12 -0.98 12 -2 12 C-1.85831863 10.56208484 -1.71148957 9.1246763 -1.5625 7.6875 C-1.48128906 6.88699219 -1.40007812 6.08648437 -1.31640625 5.26171875 C-1 3 -1 3 0 0 Z " fill="#8B6E54" transform="translate(469,156)"/>
<path d="M0 0 C1.32 0.66 2.64 1.32 4 2 C-1.75 7 -1.75 7 -4 7 C-3.6875 4.625 -3.6875 4.625 -3 2 C-2.01 1.34 -1.02 0.68 0 0 Z " fill="#C7A37C" transform="translate(462,474)"/>
<path d="M0 0 C3.63 0 7.26 0 11 0 C11 3.96 11 7.92 11 12 C10.67 12 10.34 12 10 12 C9.93941406 11.36191406 9.87882813 10.72382813 9.81640625 10.06640625 C9.73261719 9.24011719 9.64882812 8.41382813 9.5625 7.5625 C9.48128906 6.73878906 9.40007812 5.91507813 9.31640625 5.06640625 C9.21069185 3.01337975 9.21069185 3.01337975 8 2 C6.65252916 1.76924918 5.29622435 1.58846937 3.9375 1.4375 C2.638125 1.293125 1.33875 1.14875 0 1 C0 0.67 0 0.34 0 0 Z " fill="#86664B" transform="translate(237,156)"/>
<path d="M0 0 C0.99 0 1.98 0 3 0 C3 0.99 3 1.98 3 3 C4.98 2.67 6.96 2.34 9 2 C6.04816899 4.95183101 3.04488053 5.08663988 -1 6 C-1 5.34 -1 4.68 -1 4 C-0.34 4 0.32 4 1 4 C1 3.34 1 2.68 1 2 C0.34 1.67 -0.32 1.34 -1 1 C-0.67 0.67 -0.34 0.34 0 0 Z " fill="#CCA67C" transform="translate(432,489)"/>
<path d="M0 0 C1.32 0 2.64 0 4 0 C4 3.96 4 7.92 4 12 C3.67 12 3.34 12 3 12 C2 8 1 4 0 0 Z " fill="#826346" transform="translate(311,233)"/>
<path d="M0 0 C3.3 0 6.6 0 10 0 C9.67 0.99 9.34 1.98 9 3 C6.03 2.67 3.06 2.34 0 2 C0 1.34 0 0.68 0 0 Z " fill="#CEAA87" transform="translate(44,337)"/>
<path d="M0 0 C4.62 0 9.24 0 14 0 C13.67 1.32 13.34 2.64 13 4 C12.01 3.34 11.02 2.68 10 2 C7.49103314 1.54398739 7.49103314 1.54398739 4.8125 1.375 C3.91144531 1.30023438 3.01039062 1.22546875 2.08203125 1.1484375 C1.39496094 1.09945313 0.70789062 1.05046875 0 1 C0 0.67 0 0.34 0 0 Z " fill="#D1A982" transform="translate(53,349)"/>
<path d="M0 0 C0.66 0.66 1.32 1.32 2 2 C-0.97 4.475 -0.97 4.475 -4 7 C-3.6875 4.625 -3.6875 4.625 -3 2 C-2.01 1.34 -1.02 0.68 0 0 Z " fill="#CCA77F" transform="translate(470,468)"/>
<path d="M0 0 C2.50037734 2.17424117 3.43628586 3.73045798 4 7 C2.35 6.67 0.7 6.34 -1 6 C-0.67 4.02 -0.34 2.04 0 0 Z " fill="#CBA67C" transform="translate(485,48)"/>
<path d="M0 0 C2 1 2 1 3.125 3.3125 C4 6 4 6 4 10 C3.34 10 2.68 10 2 10 C1.34 6.7 0.68 3.4 0 0 Z " fill="#C2A27E" transform="translate(1,417)"/>
</svg>
