<?xml version="1.0" encoding="UTF-8"?>
<svg version="1.1" xmlns="http://www.w3.org/2000/svg" width="500" height="500">
<path d="M0 0 C1.33576104 -0.0040199 2.67152088 -0.008459 4.00727928 -0.01327956 C7.66783316 -0.02519274 11.3283739 -0.03088127 14.98894334 -0.03546071 C18.94155116 -0.04143708 22.89414343 -0.05304201 26.84674072 -0.06375122 C36.38942438 -0.08823243 45.93211316 -0.10289799 55.47481853 -0.11581129 C58.17357037 -0.11952696 60.87232171 -0.1234999 63.57107306 -0.12756395 C80.35588982 -0.15280901 97.14070747 -0.17484647 113.92553902 -0.1872921 C117.81037524 -0.19022146 121.69521144 -0.19318316 125.58004761 -0.19619751 C126.54552099 -0.19694356 127.51099438 -0.19768961 128.50572453 -0.19845827 C144.12074299 -0.21109248 159.73564709 -0.2442917 175.35061218 -0.28599934 C191.40954214 -0.32853836 207.46841377 -0.35200107 223.5273999 -0.35721266 C232.53269941 -0.36061371 241.53782036 -0.37221328 250.54306412 -0.4053154 C258.21800684 -0.43348234 265.89273435 -0.44424306 273.56772472 -0.43311994 C277.47526122 -0.42797505 281.38234827 -0.43054342 285.28981781 -0.45558548 C317.91981517 -0.6534019 345.94636274 4.64877183 369.92330933 28.15390015 C371.16080933 29.36432983 371.16080933 29.36432983 372.42330933 30.59921265 C391.39988079 49.99089661 400.08261345 74.41849033 400.06375122 101.19503784 C400.0682079 103.17274052 400.0682079 103.17274052 400.07275462 105.19039679 C400.08079454 108.83973598 400.08261251 112.48905546 400.08335209 116.13840246 C400.08520794 120.0786221 400.092758 124.01883164 400.0994873 127.95904541 C400.11305044 136.57093225 400.11909239 145.18281442 400.12349796 153.79471016 C400.12626418 159.17678551 400.13050227 164.55885908 400.13500214 169.94093323 C400.14719289 184.85552101 400.15749212 199.77010736 400.16087723 214.68470001 C400.16109679 215.63868678 400.16131636 216.59267355 400.16154258 217.575569 C400.16176086 218.53178356 400.16197913 219.48799812 400.16220403 220.47318888 C400.16264749 222.41070461 400.16309405 224.34822035 400.1635437 226.28573608 C400.16376513 227.2468021 400.16398656 228.20786812 400.1642147 229.19805735 C400.16815985 244.75889623 400.18560609 260.31968819 400.20890322 275.88050896 C400.23265371 291.87387037 400.24508078 307.86720828 400.24624515 323.8605876 C400.24715991 332.83322677 400.25286181 341.80580484 400.27106476 350.77842712 C400.28651582 358.42130193 400.29155686 366.06409675 400.28332666 373.70698422 C400.2794376 377.6015139 400.28026358 381.49588274 400.294384 385.3903923 C400.30722877 388.96600827 400.30583416 392.5413443 400.29379329 396.11696047 C400.29094628 398.00139369 400.30269147 399.88583224 400.31521535 401.770226 C400.17970028 425.50482258 391.48587807 448.29266855 375.92330933 466.15390015 C375.1576062 467.12198608 374.39190308 468.09007202 373.60299683 469.0874939 C370.83049852 472.41628295 367.66257688 475.02342124 364.23580933 477.65390015 C363.6149646 478.13310913 362.99411987 478.61231812 362.35446167 479.10604858 C343.35512856 493.58032719 322.68061944 500.31111097 298.88890076 500.29434204 C297.57113787 500.29731316 296.25337499 500.30028429 294.89567989 500.30334544 C291.24827131 500.31138537 287.60088245 500.31320333 283.95346606 500.31394291 C280.0152723 500.31579877 276.07708864 500.32334888 272.13890076 500.33007812 C263.53107888 500.34364164 254.92326167 500.34968337 246.31543088 500.35408878 C240.93535784 500.35685514 235.55528659 500.36109327 230.17521477 500.36559296 C215.26491821 500.37778414 200.35462307 500.38808303 185.44432163 500.39146805 C184.49058643 500.39168761 183.53685122 500.39190718 182.55421495 500.3921334 C181.59825585 500.39235168 180.64229675 500.39256996 179.6573692 500.39279485 C177.72038114 500.39323831 175.78339308 500.39368487 173.84640503 500.39413452 C172.88560132 500.39435595 171.92479761 500.39457738 170.93487864 500.39480552 C155.38118184 500.39874996 139.82753199 500.41619385 124.27385331 500.43949404 C108.28613713 500.46325006 92.29844447 500.47567187 76.31071037 500.47683597 C67.34195169 500.47775046 58.37325417 500.48344546 49.40451241 500.50165558 C41.76422802 500.51711418 34.12402369 500.52214332 26.48372663 500.51391748 C22.59109828 500.51003096 18.69863083 500.51084172 14.80602264 500.52497482 C-16.74432576 500.63298064 -42.38179378 496.56405916 -67.07669067 475.15390015 C-68.33546021 474.18323608 -68.33546021 474.18323608 -69.61965942 473.19296265 C-86.47752344 459.20281159 -98.02972654 433.76873633 -100.07669067 412.15390015 C-100.22673147 407.80916832 -100.22019642 403.46648371 -100.21713257 399.11949158 C-100.22010369 397.80172869 -100.22307481 396.48396581 -100.22613597 395.12627071 C-100.2341759 391.47886213 -100.23599386 387.83147327 -100.23673344 384.18405688 C-100.2385893 380.24586312 -100.24613941 376.30767946 -100.25286865 372.36949158 C-100.26643216 363.7616697 -100.2724739 355.15385249 -100.27687931 346.5460217 C-100.27964567 341.16594866 -100.2838838 335.78587741 -100.28838348 330.40580559 C-100.30057467 315.49550903 -100.31087356 300.58521389 -100.31425858 285.67491245 C-100.31447814 284.72117725 -100.31469771 283.76744204 -100.31492393 282.78480577 C-100.3151422 281.82884667 -100.31536048 280.87288757 -100.31558537 279.88796002 C-100.31602883 277.95097196 -100.3164754 276.0139839 -100.31692505 274.07699585 C-100.31714648 273.11619214 -100.31736791 272.15538843 -100.31759605 271.16546946 C-100.32154049 255.61177266 -100.33898438 240.05812281 -100.36228457 224.50444413 C-100.38604059 208.51672795 -100.3984624 192.52903529 -100.39962649 176.54130119 C-100.40054098 167.57254251 -100.40623599 158.60384499 -100.42444611 149.63510323 C-100.43990471 141.99481884 -100.44493385 134.35461451 -100.436708 126.71431745 C-100.43282149 122.8216891 -100.43363224 118.92922165 -100.44776535 115.03661346 C-100.5704772 79.1853032 -100.5704772 79.1853032 -94.20169067 64.27890015 C-93.93976929 63.6636145 -93.6778479 63.04832886 -93.4079895 62.41439819 C-92.64906853 60.65295483 -91.86367785 58.90298418 -91.07669067 57.15390015 C-90.68610474 56.25026733 -90.2955188 55.34663452 -89.89309692 54.4156189 C-86.60645185 47.2850775 -81.94060271 41.27947094 -77.07669067 35.15390015 C-76.57266724 34.49390015 -76.0686438 33.83390015 -75.54934692 33.15390015 C-61.47423429 15.52941128 -37.45466968 3.4363517 -15.34595132 0.36753535 C-10.24795395 -0.11240587 -5.11595359 0.00206406 0 0 Z " fill="#C78554" transform="translate(100.07669067382813,-0.153900146484375)"/>
<path d="M0 0 C1.33576104 -0.0040199 2.67152088 -0.008459 4.00727928 -0.01327956 C7.66783316 -0.02519274 11.3283739 -0.03088127 14.98894334 -0.03546071 C18.94155116 -0.04143708 22.89414343 -0.05304201 26.84674072 -0.06375122 C36.38942438 -0.08823243 45.93211316 -0.10289799 55.47481853 -0.11581129 C58.17357037 -0.11952696 60.87232171 -0.1234999 63.57107306 -0.12756395 C80.35588982 -0.15280901 97.14070747 -0.17484647 113.92553902 -0.1872921 C117.81037524 -0.19022146 121.69521144 -0.19318316 125.58004761 -0.19619751 C126.54552099 -0.19694356 127.51099438 -0.19768961 128.50572453 -0.19845827 C144.12074299 -0.21109248 159.73564709 -0.2442917 175.35061218 -0.28599934 C191.40954214 -0.32853836 207.46841377 -0.35200107 223.5273999 -0.35721266 C232.53269941 -0.36061371 241.53782036 -0.37221328 250.54306412 -0.4053154 C258.21800684 -0.43348234 265.89273435 -0.44424306 273.56772472 -0.43311994 C277.47526122 -0.42797505 281.38234827 -0.43054342 285.28981781 -0.45558548 C317.91981517 -0.6534019 345.94636274 4.64877183 369.92330933 28.15390015 C371.16080933 29.36432983 371.16080933 29.36432983 372.42330933 30.59921265 C391.39988079 49.99089661 400.08261345 74.41849033 400.06375122 101.19503784 C400.0682079 103.17274052 400.0682079 103.17274052 400.07275462 105.19039679 C400.08079454 108.83973598 400.08261251 112.48905546 400.08335209 116.13840246 C400.08520794 120.0786221 400.092758 124.01883164 400.0994873 127.95904541 C400.11305044 136.57093225 400.11909239 145.18281442 400.12349796 153.79471016 C400.12626418 159.17678551 400.13050227 164.55885908 400.13500214 169.94093323 C400.14719289 184.85552101 400.15749212 199.77010736 400.16087723 214.68470001 C400.16109679 215.63868678 400.16131636 216.59267355 400.16154258 217.575569 C400.16176086 218.53178356 400.16197913 219.48799812 400.16220403 220.47318888 C400.16264749 222.41070461 400.16309405 224.34822035 400.1635437 226.28573608 C400.16376513 227.2468021 400.16398656 228.20786812 400.1642147 229.19805735 C400.16815985 244.75889623 400.18560609 260.31968819 400.20890322 275.88050896 C400.23265371 291.87387037 400.24508078 307.86720828 400.24624515 323.8605876 C400.24715991 332.83322677 400.25286181 341.80580484 400.27106476 350.77842712 C400.28651582 358.42130193 400.29155686 366.06409675 400.28332666 373.70698422 C400.2794376 377.6015139 400.28026358 381.49588274 400.294384 385.3903923 C400.30722877 388.96600827 400.30583416 392.5413443 400.29379329 396.11696047 C400.29094628 398.00139369 400.30269147 399.88583224 400.31521535 401.770226 C400.17970028 425.50482258 391.48587807 448.29266855 375.92330933 466.15390015 C375.1576062 467.12198608 374.39190308 468.09007202 373.60299683 469.0874939 C370.83049852 472.41628295 367.66257688 475.02342124 364.23580933 477.65390015 C363.6149646 478.13310913 362.99411987 478.61231812 362.35446167 479.10604858 C343.35512856 493.58032719 322.68061944 500.31111097 298.88890076 500.29434204 C297.57113787 500.29731316 296.25337499 500.30028429 294.89567989 500.30334544 C291.24827131 500.31138537 287.60088245 500.31320333 283.95346606 500.31394291 C280.0152723 500.31579877 276.07708864 500.32334888 272.13890076 500.33007812 C263.53107888 500.34364164 254.92326167 500.34968337 246.31543088 500.35408878 C240.93535784 500.35685514 235.55528659 500.36109327 230.17521477 500.36559296 C215.26491821 500.37778414 200.35462307 500.38808303 185.44432163 500.39146805 C184.49058643 500.39168761 183.53685122 500.39190718 182.55421495 500.3921334 C181.59825585 500.39235168 180.64229675 500.39256996 179.6573692 500.39279485 C177.72038114 500.39323831 175.78339308 500.39368487 173.84640503 500.39413452 C172.88560132 500.39435595 171.92479761 500.39457738 170.93487864 500.39480552 C155.38118184 500.39874996 139.82753199 500.41619385 124.27385331 500.43949404 C108.28613713 500.46325006 92.29844447 500.47567187 76.31071037 500.47683597 C67.34195169 500.47775046 58.37325417 500.48344546 49.40451241 500.50165558 C41.76422802 500.51711418 34.12402369 500.52214332 26.48372663 500.51391748 C22.59109828 500.51003096 18.69863083 500.51084172 14.80602264 500.52497482 C-16.74432576 500.63298064 -42.38179378 496.56405916 -67.07669067 475.15390015 C-68.33546021 474.18323608 -68.33546021 474.18323608 -69.61965942 473.19296265 C-86.47752344 459.20281159 -98.02972654 433.76873633 -100.07669067 412.15390015 C-100.22673147 407.80916832 -100.22019642 403.46648371 -100.21713257 399.11949158 C-100.22010369 397.80172869 -100.22307481 396.48396581 -100.22613597 395.12627071 C-100.2341759 391.47886213 -100.23599386 387.83147327 -100.23673344 384.18405688 C-100.2385893 380.24586312 -100.24613941 376.30767946 -100.25286865 372.36949158 C-100.26643216 363.7616697 -100.2724739 355.15385249 -100.27687931 346.5460217 C-100.27964567 341.16594866 -100.2838838 335.78587741 -100.28838348 330.40580559 C-100.30057467 315.49550903 -100.31087356 300.58521389 -100.31425858 285.67491245 C-100.31447814 284.72117725 -100.31469771 283.76744204 -100.31492393 282.78480577 C-100.3151422 281.82884667 -100.31536048 280.87288757 -100.31558537 279.88796002 C-100.31602883 277.95097196 -100.3164754 276.0139839 -100.31692505 274.07699585 C-100.31714648 273.11619214 -100.31736791 272.15538843 -100.31759605 271.16546946 C-100.32154049 255.61177266 -100.33898438 240.05812281 -100.36228457 224.50444413 C-100.38604059 208.51672795 -100.3984624 192.52903529 -100.39962649 176.54130119 C-100.40054098 167.57254251 -100.40623599 158.60384499 -100.42444611 149.63510323 C-100.43990471 141.99481884 -100.44493385 134.35461451 -100.436708 126.71431745 C-100.43282149 122.8216891 -100.43363224 118.92922165 -100.44776535 115.03661346 C-100.5704772 79.1853032 -100.5704772 79.1853032 -94.20169067 64.27890015 C-93.93976929 63.6636145 -93.6778479 63.04832886 -93.4079895 62.41439819 C-92.64906853 60.65295483 -91.86367785 58.90298418 -91.07669067 57.15390015 C-90.68610474 56.25026733 -90.2955188 55.34663452 -89.89309692 54.4156189 C-86.60645185 47.2850775 -81.94060271 41.27947094 -77.07669067 35.15390015 C-76.57266724 34.49390015 -76.0686438 33.83390015 -75.54934692 33.15390015 C-61.47423429 15.52941128 -37.45466968 3.4363517 -15.34595132 0.36753535 C-10.24795395 -0.11240587 -5.11595359 0.00206406 0 0 Z M-33.88919067 26.84140015 C-34.60292847 27.19170288 -35.31666626 27.54200562 -36.05203247 27.90292358 C-42.05785308 30.95051092 -47.15666304 34.53886607 -52.07669067 39.15390015 C-52.55444946 39.58686401 -53.03220825 40.01982788 -53.52444458 40.46591187 C-68.92013177 54.48550277 -78.62277324 72.51550356 -80.35428524 93.52157629 C-80.4644596 96.98304599 -80.48653718 100.43283812 -80.47109985 103.89601135 C-80.47719096 105.20538786 -80.48328206 106.51476436 -80.48955774 107.86381894 C-80.50578944 111.4554776 -80.50367408 115.04691439 -80.49818277 118.63859665 C-80.49549158 122.5290292 -80.51008328 126.41940534 -80.52227783 130.30981445 C-80.54324708 137.91567043 -80.54787757 145.52145004 -80.54608995 153.12733152 C-80.54477792 159.31582165 -80.54860884 165.50428813 -80.55601501 171.69277382 C-80.55811441 173.48117631 -80.56021201 175.26957881 -80.56230783 177.05798131 C-80.56335136 177.94836437 -80.56439489 178.83874742 -80.56547004 179.75611178 C-80.58433839 196.56485578 -80.58333279 213.37355607 -80.57650071 230.18230627 C-80.57092879 245.52341629 -80.59174183 260.86435914 -80.62486118 276.20543011 C-80.65868287 291.9956427 -80.67375592 307.78577539 -80.66914415 323.57602483 C-80.66690789 332.42576225 -80.67201841 341.27534523 -80.69703674 350.1250515 C-80.71815987 357.66046455 -80.72153371 365.19563847 -80.70273715 372.73106172 C-80.69364625 376.56750277 -80.6922287 380.40349932 -80.7130928 384.2399044 C-80.85626052 412.46495468 -77.34690021 436.18888462 -57.07669067 457.15390015 C-38.86154856 474.46240623 -18.65655789 480.31234496 5.97680664 480.29434204 C7.90216792 480.29879872 7.90216792 480.29879872 9.8664254 480.30334544 C13.4044419 480.31135291 16.94243806 480.31320149 20.48046255 480.31394291 C24.30612822 480.31580442 28.13178359 480.32335709 31.95744324 480.33007812 C40.31096331 480.34361668 48.66447855 480.34967895 57.01800776 480.35408878 C62.24080538 480.35685839 67.46360117 480.36109699 72.68639755 480.36559296 C87.16703996 480.37777899 101.6476809 480.38808012 116.12832832 480.39146805 C117.05374966 480.39168761 117.97917101 480.39190718 118.93263542 480.3921334 C119.86017569 480.39235168 120.78771595 480.39256996 121.7433635 480.39279485 C123.62268138 480.3932383 125.50199926 480.39368487 127.38131714 480.39413452 C128.31350881 480.39435595 129.24570048 480.39457738 130.20614038 480.39480552 C145.30375698 480.39875179 160.40132526 480.41620358 175.4989232 480.43949404 C191.02568934 480.4632519 206.55243128 480.47567189 222.07921588 480.47683597 C230.78635918 480.47775015 239.49343948 480.48343773 248.20056534 480.50165558 C255.6157012 480.51711644 263.03075457 480.52214187 270.44590349 480.51391748 C274.22311436 480.51003226 278.00015941 480.51083533 281.77734947 480.52497482 C311.7674348 480.6307827 335.28106378 477.5986411 357.61080933 455.96640015 C371.73208611 441.76670622 380.01019198 422.76074737 380.04772949 402.7008667 C380.04413422 401.92546539 380.04053894 401.15006409 380.03683472 400.35116577 C380.03705376 399.09120285 380.03705376 399.09120285 380.03727722 397.80578613 C380.03658616 395.0572136 380.02883189 392.30871069 380.02096558 389.56015015 C380.01909853 387.64344317 380.01767598 385.72673571 380.01667786 383.81002808 C380.01287527 378.78608869 380.00306445 373.76217861 379.99197388 368.73825073 C379.98171102 363.60336707 379.97716982 358.46847863 379.97213745 353.33358765 C379.96144 343.27367693 379.94386166 333.21379557 379.92330933 323.15390015 C367.71330933 323.15390015 355.50330933 323.15390015 342.92330933 323.15390015 C342.92330933 335.69390015 342.92330933 348.23390015 342.92330933 361.15390015 C304.64330933 361.15390015 266.36330933 361.15390015 226.92330933 361.15390015 C226.92330933 357.19390015 226.92330933 353.23390015 226.92330933 349.15390015 C222.96330933 349.15390015 219.00330933 349.15390015 214.92330933 349.15390015 C214.92330933 345.19390015 214.92330933 341.23390015 214.92330933 337.15390015 C210.96330933 337.15390015 207.00330933 337.15390015 202.92330933 337.15390015 C202.92330933 324.28390015 202.92330933 311.41390015 202.92330933 298.15390015 C190.05330933 298.15390015 177.18330933 298.15390015 163.92330933 298.15390015 C163.92330933 272.74390015 163.92330933 247.33390015 163.92330933 221.15390015 C176.79330933 221.15390015 189.66330933 221.15390015 202.92330933 221.15390015 C202.92330933 225.11390015 202.92330933 229.07390015 202.92330933 233.15390015 C206.88330933 233.15390015 210.84330933 233.15390015 214.92330933 233.15390015 C214.92330933 254.60390015 214.92330933 276.05390015 214.92330933 298.15390015 C249.24330933 298.15390015 283.56330933 298.15390015 318.92330933 298.15390015 C318.92330933 247.33390015 318.92330933 196.51390015 318.92330933 144.15390015 C331.79330933 144.15390015 344.66330933 144.15390015 357.92330933 144.15390015 C357.92330933 148.11390015 357.92330933 152.07390015 357.92330933 156.15390015 C361.88330933 156.15390015 365.84330933 156.15390015 369.92330933 156.15390015 C369.92330933 160.11390015 369.92330933 164.07390015 369.92330933 168.15390015 C373.22330933 168.15390015 376.52330933 168.15390015 379.92330933 168.15390015 C379.9932166 158.22579895 380.04632548 148.29775755 380.07874584 138.36945915 C380.09431609 133.75796611 380.11539381 129.14664306 380.14962769 124.5352478 C380.18253275 120.07427454 380.20022708 115.61346346 380.20794106 111.15237808 C380.21342926 109.46136044 380.22414401 107.77035037 380.2404995 106.07940292 C380.46589304 81.78171021 373.95546365 61.94694109 356.92330933 44.15390015 C356.29682495 43.45265015 355.67034058 42.75140015 355.02487183 42.02890015 C342.76037485 28.78117346 324.35333654 21.33391748 306.5574857 19.87865949 C303.09896717 19.77186815 299.65234274 19.75355746 296.19224548 19.77294922 C294.23007266 19.76592926 294.23007266 19.76592926 292.22825998 19.75876749 C288.64026566 19.74637498 285.05251421 19.75237344 281.46451962 19.76172614 C277.57826443 19.7685652 273.69204855 19.7580115 269.80580139 19.74978638 C262.20929718 19.73649786 254.61288226 19.73930501 247.01637466 19.7480243 C240.83786355 19.75482025 234.65937734 19.75570933 228.48086357 19.75245285 C227.59897568 19.75199315 226.71708778 19.75153345 225.80847601 19.75105982 C224.01650345 19.75010057 222.2245309 19.74912793 220.43255835 19.74814205 C203.65778833 19.73960232 186.88306762 19.74939973 170.10830569 19.76554315 C155.74038182 19.7789427 141.3725307 19.77661847 127.00460815 19.76278687 C110.28832584 19.74670191 93.57208668 19.74042862 76.85579771 19.74962366 C75.07038876 19.75057922 73.28497981 19.75152234 71.49957085 19.75245285 C70.62129607 19.75291568 69.74302129 19.7533785 68.83813213 19.75385536 C62.67342475 19.75643669 56.50874493 19.75209276 50.34404182 19.74501419 C42.82209708 19.73656642 35.30024615 19.7389477 27.77831203 19.75485642 C23.94652481 19.76269567 20.11489353 19.76590583 16.28310776 19.75590897 C12.11572398 19.74520169 7.94872779 19.7580576 3.78135681 19.77294922 C2.58949565 19.76625705 1.3976345 19.75956489 0.16965634 19.75266993 C-11.54082959 19.83332181 -23.33359635 21.51818984 -33.88919067 26.84140015 Z " fill="#1A1411" transform="translate(100.07669067382813,-0.153900146484375)"/>
<path d="M0 0 C12.87 0 25.74 0 39 0 C39 3.96 39 7.92 39 12 C42.96 12 46.92 12 51 12 C51 15.96 51 19.92 51 24 C54.3 24 57.6 24 61 24 C61 75.15 61 126.3 61 179 C48.79 179 36.58 179 24 179 C24 191.54 24 204.08 24 217 C-14.28 217 -52.56 217 -92 217 C-92 213.04 -92 209.08 -92 205 C-95.96 205 -99.92 205 -104 205 C-104 201.04 -104 197.08 -104 193 C-107.96 193 -111.92 193 -116 193 C-116 180.13 -116 167.26 -116 154 C-128.87 154 -141.74 154 -155 154 C-155 128.59 -155 103.18 -155 77 C-142.13 77 -129.26 77 -116 77 C-116 80.96 -116 84.92 -116 89 C-112.04 89 -108.08 89 -104 89 C-104 110.45 -104 131.9 -104 154 C-69.68 154 -35.36 154 0 154 C0 103.18 0 52.36 0 0 Z " fill="#956648" transform="translate(419,144)"/>
<path d="M0 0 C12.54 0 25.08 0 38 0 C38 12.54 38 25.08 38 38 C50.87 38 63.74 38 77 38 C77 50.87 77 63.74 77 77 C89.54 77 102.08 77 115 77 C115 89.54 115 102.08 115 115 C102.46 115 89.92 115 77 115 C77 106.42 77 97.84 77 89 C68.09 89 59.18 89 50 89 C50 127.28 50 165.56 50 205 C37.46 205 24.92 205 12 205 C12 201.04 12 197.08 12 193 C8.04 193 4.08 193 0 193 C0 129.31 0 65.62 0 0 Z " fill="#1A1411" transform="translate(43,144)"/>
<path d="M0 0 C12.87 0 25.74 0 39 0 C39 63.69 39 127.38 39 193 C26.13 193 13.26 193 0 193 C0 184.09 0 175.18 0 166 C-8.58 166 -17.16 166 -26 166 C-26 162.04 -26 158.08 -26 154 C-29.96 154 -33.92 154 -38 154 C-38 141.46 -38 128.92 -38 116 C-25.46 116 -12.92 116 0 116 C0 77.72 0 39.44 0 0 Z " fill="#1B1511" transform="translate(197,144)"/>
<path d="M0 0 C12.87 0 25.74 0 39 0 C39 3.96 39 7.92 39 12 C42.96 12 46.92 12 51 12 C51 33.45 51 54.9 51 77 C85.32 77 119.64 77 155 77 C155 89.87 155 102.74 155 116 C116.72 116 78.44 116 39 116 C39 103.13 39 90.26 39 77 C26.13 77 13.26 77 0 77 C0 51.59 0 26.18 0 0 Z " fill="#1C1512" transform="translate(264,221)"/>
<path d="M0 0 C12.54 0 25.08 0 38 0 C38 50.82 38 101.64 38 154 C25.46 154 12.92 154 0 154 C0 103.18 0 52.36 0 0 Z " fill="#1A1411" transform="translate(419,144)"/>
<path d="M0 0 C3.96 0 7.92 0 12 0 C12 3.96 12 7.92 12 12 C15.96 12 19.92 12 24 12 C24 75.69 24 139.38 24 205 C11.13 205 -1.74 205 -15 205 C-15 201.04 -15 197.08 -15 193 C-18.96 193 -22.92 193 -27 193 C-27 189.04 -27 185.08 -27 181 C-18.09 181 -9.18 181 0 181 C0 121.27 0 61.54 0 0 Z " fill="#956647" transform="translate(236,156)"/>
<path d="M0 0 C25.41 0 50.82 0 77 0 C77 12.54 77 25.08 77 38 C64.46 38 51.92 38 39 38 C39 29.42 39 20.84 39 12 C30.09 12 21.18 12 12 12 C12 50.28 12 88.56 12 128 C-0.54 128 -13.08 128 -26 128 C-26 124.04 -26 120.08 -26 116 C-17.42 116 -8.84 116 0 116 C0 77.72 0 39.44 0 0 Z " fill="#5A4239" transform="translate(81,221)"/>
<path d="M0 0 C12.87 0 25.74 0 39 0 C39 25.41 39 50.82 39 77 C26.13 77 13.26 77 0 77 C0 51.59 0 26.18 0 0 Z " fill="#1A1412" transform="translate(264,221)"/>
<path d="M0 0 C3.96 0 7.92 0 12 0 C12 63.69 12 127.38 12 193 C-0.87 193 -13.74 193 -27 193 C-27 189.04 -27 185.08 -27 181 C-18.09 181 -9.18 181 0 181 C0 121.27 0 61.54 0 0 Z " fill="#5B423B" transform="translate(236,156)"/>
<path d="M0 0 C0.33 0 0.66 0 1 0 C1 3.96 1 7.92 1 12 C4.96 12 8.92 12 13 12 C13 62.82 13 113.64 13 166 C0.13 166 -12.74 166 -26 166 C-26 162.04 -26 158.08 -26 154 C-17.42 154 -8.84 154 0 154 C0 103.18 0 52.36 0 0 Z " fill="#594139" transform="translate(457,144)"/>
<path d="M0 0 C8.91 0 17.82 0 27 0 C27 8.58 27 17.16 27 26 C26.67 26 26.34 26 26 26 C26 21.38 26 16.76 26 12 C21.71 12 17.42 12 13 12 C13 50.28 13 88.56 13 128 C0.13 128 -12.74 128 -26 128 C-26 124.04 -26 120.08 -26 116 C-17.42 116 -8.84 116 0 116 C0 77.72 0 39.44 0 0 Z " fill="#956648" transform="translate(93,233)"/>
<path d="M0 0 C3.3 0 6.6 0 10 0 C9.67 50.82 9.34 101.64 9 154 C-2.88 154 -14.76 154 -27 154 C-27 150.04 -27 146.08 -27 142 C-18.09 142 -9.18 142 0 142 C0 95.14 0 48.28 0 0 Z " fill="#956548" transform="translate(470,168)"/>
<path d="M0 0 C3.96 0 7.92 0 12 0 C12 8.91 12 17.82 12 27 C-26.28 27 -64.56 27 -104 27 C-104 23.04 -104 19.08 -104 15 C-69.68 15 -35.36 15 0 15 C0 10.05 0 5.1 0 0 Z " fill="#5C4239" transform="translate(419,322)"/>
<path d="M0 0 C12.54 0 25.08 0 38 0 C38 12.54 38 25.08 38 38 C25.46 38 12.92 38 0 38 C0 25.46 0 12.92 0 0 Z " fill="#1B1411" transform="translate(120,221)"/>
<path d="M0 0 C0.33 0 0.66 0 1 0 C1 3.96 1 7.92 1 12 C4.96 12 8.92 12 13 12 C13 15.96 13 19.92 13 24 C16.96 24 20.92 24 25 24 C25 28.62 25 33.24 25 38 C29.62 38 34.24 38 39 38 C39 38.33 39 38.66 39 39 C26.46 39 13.92 39 1 39 C1 51.54 1 64.08 1 77 C0.67 77 0.34 77 0 77 C0 72.38 0 67.76 0 63 C-4.62 63 -9.24 63 -14 63 C-14 59.04 -14 55.08 -14 51 C-17.96 51 -21.92 51 -26 51 C-26 47.04 -26 43.08 -26 39 C-29.96 39 -33.92 39 -38 39 C-38 38.67 -38 38.34 -38 38 C-25.46 38 -12.92 38 0 38 C0 25.46 0 12.92 0 0 Z " fill="#5B423A" transform="translate(158,221)"/>
<path d="M0 0 C3.96 0 7.92 0 12 0 C12 21.45 12 42.9 12 65 C8.04 65 4.08 65 0 65 C0 43.55 0 22.1 0 0 Z " fill="#5B423A" transform="translate(303,233)"/>
<path d="M0 0 C3.96 0 7.92 0 12 0 C12 17.49 12 34.98 12 53 C8.04 53 4.08 53 0 53 C0 35.51 0 18.02 0 0 Z " fill="#946648" transform="translate(315,245)"/>
<path d="M0 0 C12.54 0 25.08 0 38 0 C38 8.25 38 16.5 38 25 C33.38 25 28.76 25 24 25 C24 20.71 24 16.42 24 12 C19.71 12 15.42 12 11 12 C11 8.37 11 4.74 11 1 C7.37 1 3.74 1 0 1 C0 0.67 0 0.34 0 0 Z " fill="#58413A" transform="translate(265,298)"/>
<path d="M0 0 C3.96 0 7.92 0 12 0 C12 3.96 12 7.92 12 12 C16.29 12 20.58 12 25 12 C25 16.62 25 21.24 25 26 C16.75 26 8.5 26 0 26 C0 17.42 0 8.84 0 0 Z " fill="#5A4139" transform="translate(81,156)"/>
<path d="M0 0 C3.96 0 7.92 0 12 0 C12 4.29 12 8.58 12 13 C15.96 13 19.92 13 24 13 C24 17.62 24 22.24 24 27 C16.08 27 8.16 27 0 27 C0 18.09 0 9.18 0 0 Z " fill="#5B423A" transform="translate(120,194)"/>
<path d="M0 0 C3.96 0 7.92 0 12 0 C12 3.96 12 7.92 12 12 C15.96 12 19.92 12 24 12 C24 15.96 24 19.92 24 24 C16.08 24 8.16 24 0 24 C0 16.08 0 8.16 0 0 Z " fill="#755341" transform="translate(419,298)"/>
<path d="M0 0 C7.92 0 15.84 0 24 0 C24 3.96 24 7.92 24 12 C28.62 12 33.24 12 38 12 C38 16.29 38 20.58 38 25 C33.38 25 28.76 25 24 25 C24 21.04 24 17.08 24 13 C20.04 13 16.08 13 12 13 C12 9.04 12 5.08 12 1 C8.04 1 4.08 1 0 1 C0 0.67 0 0.34 0 0 Z " fill="#714F3E" transform="translate(120,259)"/>
<path d="M0 0 C0.33 0 0.66 0 1 0 C1 3.96 1 7.92 1 12 C4.96 12 8.92 12 13 12 C13 15.96 13 19.92 13 24 C16.96 24 20.92 24 25 24 C25 28.62 25 33.24 25 38 C20.71 38 16.42 38 12 38 C12 33.38 12 28.76 12 24 C8.04 24 4.08 24 0 24 C0 16.08 0 8.16 0 0 Z " fill="#755341" transform="translate(158,221)"/>
<path d="M0 0 C110.55 0 221.1 0 335 0 C335 0.66 335 1.32 335 2 C334.31323165 1.99962028 333.62646331 1.99924056 332.9188838 1.99884933 C292.21829144 1.9764728 251.5176998 1.95931422 210.81710252 1.94893467 C205.93047719 1.94768396 201.04385187 1.94638964 196.15722656 1.94506836 C195.18438463 1.94480605 194.2115427 1.94454374 193.20922071 1.94427348 C177.45569832 1.9399218 161.70217958 1.932037 145.94865936 1.9228472 C129.78492358 1.91349673 113.62118972 1.90794143 97.45745134 1.90591151 C87.48303574 1.90453918 77.50863044 1.90020426 67.53421801 1.89208353 C60.69503056 1.8867989 53.85584843 1.88519963 47.01665908 1.88649862 C43.07044168 1.88713931 39.1242423 1.88615489 35.17802811 1.88079453 C31.56310716 1.87592008 27.94821632 1.87568791 24.33329397 1.87910111 C22.41055611 1.87972213 20.48781859 1.87541665 18.56508589 1.87091869 C12.61264588 1.88121087 6.88453735 2.08474021 1 3 C0.67 2.01 0.34 1.02 0 0 Z " fill="#271406" transform="translate(81,19)"/>
<path d="M0 0 C1.50433594 0.01353516 1.50433594 0.01353516 3.0390625 0.02734375 C4.19535156 0.04474609 4.19535156 0.04474609 5.375 0.0625 C-1.11100883 4.38650588 -9.71247388 3.20123448 -17.23558044 3.18275452 C-18.50746265 3.18360894 -19.77934486 3.18446337 -21.08976895 3.18534368 C-24.60845285 3.18757389 -28.12710616 3.18358757 -31.64578617 3.17856562 C-35.44460794 3.17424011 -39.24342804 3.17570904 -43.04225159 3.1764679 C-49.6201207 3.1769918 -56.19797987 3.17385895 -62.77584648 3.16823006 C-72.28629292 3.16009697 -81.79673457 3.15749798 -91.30718411 3.15624207 C-106.73791387 3.15405439 -122.16863834 3.14740201 -137.59936523 3.13793945 C-152.58732069 3.12875798 -167.57527472 3.12168074 -182.56323242 3.11743164 C-183.48736199 3.11716892 -184.41149155 3.11690619 -185.36362504 3.11663551 C-189.99979268 3.11533045 -194.63596033 3.11406675 -199.27212799 3.11282361 C-237.72308903 3.10245985 -276.17404416 3.08484927 -314.625 3.0625 C-314.625 2.7325 -314.625 2.4025 -314.625 2.0625 C-313.97615676 2.06076375 -313.32731351 2.0590275 -312.65880835 2.05723864 C-274.23824638 1.95430264 -235.81770203 1.84621014 -197.39717368 1.73138306 C-192.78822007 1.7176128 -188.17926632 1.70388581 -183.5703125 1.69018555 C-182.65271839 1.68745724 -181.73512427 1.68472894 -180.78972428 1.68191796 C-165.91483829 1.63779338 -151.03994468 1.59717685 -136.16504534 1.55784739 C-120.91211659 1.51744068 -105.65920204 1.47328584 -90.40629423 1.42562145 C-80.9877128 1.39630801 -71.56913249 1.36994928 -62.15053259 1.34732103 C-55.69963511 1.33154317 -49.24875503 1.31213826 -42.79787685 1.28983159 C-39.07113957 1.27705346 -35.34441574 1.26592191 -31.61766243 1.25908089 C-27.58521715 1.25163714 -23.55283719 1.23657998 -19.52041626 1.22071838 C-18.33172082 1.21974028 -17.14302537 1.21876217 -15.91830885 1.21775442 C-14.30823205 1.20954276 -14.30823205 1.20954276 -12.66562843 1.2011652 C-11.73379474 1.19850716 -10.80196105 1.19584911 -9.84188998 1.19311053 C-6.38462688 0.98942205 -3.66090639 -0.04256868 0 0 Z " fill="#BB8962" transform="translate(412.625,476.9375)"/>
<path d="M0 0 C3.96 0 7.92 0 12 0 C12 63.69 12 127.38 12 193 C11.01 192.67 10.02 192.34 9 192 C9.33 191.67 9.66 191.34 10 191 C10.10943182 188.69673272 10.14693895 186.39005112 10.15821838 184.08421326 C10.16315636 183.35240296 10.16809434 182.62059266 10.17318195 181.8666063 C10.18863182 179.39601794 10.1969377 176.9254557 10.20532227 174.45483398 C10.21489492 172.69115974 10.22490463 170.92748782 10.23532104 169.16381836 C10.26244264 164.36032657 10.28341279 159.55682489 10.30332303 154.75329852 C10.325138 149.73908337 10.35254857 144.72489898 10.37937927 139.71070862 C10.42936706 130.20865469 10.47428323 120.70658375 10.51740164 111.20449644 C10.56672211 100.38966477 10.62165943 89.57486395 10.67708123 78.7600621 C10.79099467 56.50673679 10.89781321 34.25338204 11 12 C7.37 12 3.74 12 0 12 C0 8.04 0 4.08 0 0 Z " fill="#654739" transform="translate(236,156)"/>
<path d="M0 0 C8.58 0 17.16 0 26 0 C26 3.96 26 7.92 26 12 C17.42 12 8.84 12 0 12 C0 8.04 0 4.08 0 0 Z " fill="#594139" transform="translate(171,298)"/>
<path d="M0 0 C0.33 0 0.66 0 1 0 C1 3.96 1 7.92 1 12 C4.96 12 8.92 12 13 12 C13 62.82 13 113.64 13 166 C12.67 166 12.34 166 12 166 C12 119.14 12 72.28 12 24 C8.04 24 4.08 24 0 24 C0 16.08 0 8.16 0 0 Z " fill="#6F4F3E" transform="translate(457,144)"/>
<path d="M0 0 C12.87 0 25.74 0 39 0 C39 6.27 39 12.54 39 19 C38.67 19 38.34 19 38 19 C37.34 13.72 36.68 8.44 36 3 C25.11 3 14.22 3 3 3 C3 26.76 3 50.52 3 75 C7.95 75.33 12.9 75.66 18 76 C18 76.33 18 76.66 18 77 C12.06 77 6.12 77 0 77 C0 51.59 0 26.18 0 0 Z " fill="#331E0F" transform="translate(264,221)"/>
<path d="M0 0 C4.62 0 9.24 0 14 0 C14 4.29 14 8.58 14 13 C9.38 13 4.76 13 0 13 C0 8.71 0 4.42 0 0 Z " fill="#946548" transform="translate(289,310)"/>
<path d="M0 0 C4.62 0 9.24 0 14 0 C14 4.29 14 8.58 14 13 C9.38 13 4.76 13 0 13 C0 8.71 0 4.42 0 0 Z " fill="#956748" transform="translate(183,310)"/>
<path d="M0 0 C4.29 0 8.58 0 13 0 C13 4.62 13 9.24 13 14 C8.71 14 4.42 14 0 14 C0 9.38 0 4.76 0 0 Z " fill="#966647" transform="translate(93,168)"/>
<path d="M0 0 C12.21 0 24.42 0 37 0 C37 26.07 37 52.14 37 79 C36.67 79 36.34 79 36 79 C35.67 53.59 35.34 28.18 35 2 C24.44 2 13.88 2 3 2 C2.24181685 6.54909889 1.82026357 10.5797606 1.68359375 15.1484375 C1.66281265 15.80582916 1.64203156 16.46322083 1.62062073 17.14053345 C1.55579247 19.21859362 1.49655436 21.29676856 1.4375 23.375 C1.39425112 24.79298011 1.35063491 26.21094907 1.30664062 27.62890625 C1.20018082 31.0858188 1.09873016 34.54285706 1 38 C0.67 38 0.34 38 0 38 C0 25.46 0 12.92 0 0 Z " fill="#BE865D" transform="translate(443,323)"/>
<path d="M0 0 C4.62 0 9.24 0 14 0 C14 3.96 14 7.92 14 12 C9.38 12 4.76 12 0 12 C0 8.04 0 4.08 0 0 Z " fill="#966647" transform="translate(144,272)"/>
<path d="M0 0 C3.96 0 7.92 0 12 0 C12 4.62 12 9.24 12 14 C8.04 14 4.08 14 0 14 C0 9.38 0 4.76 0 0 Z " fill="#976748" transform="translate(171,245)"/>
<path d="M0 0 C3.96 0 7.92 0 12 0 C12 4.62 12 9.24 12 14 C8.04 14 4.08 14 0 14 C0 9.38 0 4.76 0 0 Z " fill="#936648" transform="translate(132,207)"/>
<path d="M0 0 C8.0821727 -0.11564317 15.96102748 0.1425096 24 1 C24 4.63 24 8.26 24 12 C19.71 12 15.42 12 11 12 C11 8.37 11 4.74 11 1 C7.37 1 3.74 1 0 1 C0 0.67 0 0.34 0 0 Z " fill="#735140" transform="translate(265,298)"/>
<path d="M0 0 C3.96 0 7.92 0 12 0 C12 4.29 12 8.58 12 13 C8.04 13 4.08 13 0 13 C0 8.71 0 4.42 0 0 Z " fill="#775340" transform="translate(120,194)"/>
<path d="M0 0 C4.62 0 9.24 0 14 0 C14 3.63 14 7.26 14 11 C9.38 11 4.76 11 0 11 C0 7.37 0 3.74 0 0 Z " fill="#5A433B" transform="translate(144,260)"/>
<path d="M0 0 C3.96 0 7.92 0 12 0 C12 3.96 12 7.92 12 12 C8.04 12 4.08 12 0 12 C0 8.04 0 4.08 0 0 Z " fill="#725241" transform="translate(315,337)"/>
<path d="M0 0 C3.96 0 7.92 0 12 0 C12 3.96 12 7.92 12 12 C8.04 12 4.08 12 0 12 C0 8.04 0 4.08 0 0 Z " fill="#735142" transform="translate(209,337)"/>
<path d="M0 0 C3.96 0 7.92 0 12 0 C12 3.96 12 7.92 12 12 C8.04 12 4.08 12 0 12 C0 8.04 0 4.08 0 0 Z " fill="#74513F" transform="translate(55,337)"/>
<path d="M0 0 C3.96 0 7.92 0 12 0 C12 3.96 12 7.92 12 12 C8.04 12 4.08 12 0 12 C0 8.04 0 4.08 0 0 Z " fill="#C38557" transform="translate(431,310)"/>
<path d="M0 0 C3.96 0 7.92 0 12 0 C12 3.96 12 7.92 12 12 C8.04 12 4.08 12 0 12 C0 8.04 0 4.08 0 0 Z " fill="#C78654" transform="translate(419,298)"/>
<path d="M0 0 C3.96 0 7.92 0 12 0 C12 3.96 12 7.92 12 12 C8.04 12 4.08 12 0 12 C0 8.04 0 4.08 0 0 Z " fill="#74513F" transform="translate(303,233)"/>
<path d="M0 0 C3.96 0 7.92 0 12 0 C12 3.96 12 7.92 12 12 C8.04 12 4.08 12 0 12 C0 8.04 0 4.08 0 0 Z " fill="#755140" transform="translate(236,156)"/>
<path d="M0 0 C3.96 0 7.92 0 12 0 C12 3.96 12 7.92 12 12 C8.04 12 4.08 12 0 12 C0 8.04 0 4.08 0 0 Z " fill="#71513F" transform="translate(81,156)"/>
<path d="M0 0 C3.96 0 7.92 0 12 0 C12 3.63 12 7.26 12 11 C8.04 11 4.08 11 0 11 C0 7.37 0 3.74 0 0 Z " fill="#74513F" transform="translate(431,299)"/>
<path d="M0 0 C3.96 0 7.92 0 12 0 C12 3.63 12 7.26 12 11 C8.04 11 4.08 11 0 11 C0 7.37 0 3.74 0 0 Z " fill="#75513F" transform="translate(171,299)"/>
<path d="M0 0 C0.33 0 0.66 0 1 0 C1 4.62 1 9.24 1 14 C13.54 14 26.08 14 39 14 C39 14.33 39 14.66 39 15 C26.46 15 13.92 15 1 15 C1 27.54 1 40.08 1 53 C0.67 53 0.34 53 0 53 C0 40.46 0 27.92 0 15 C-4.62 15 -9.24 15 -14 15 C-14 14.67 -14 14.34 -14 14 C-9.38 14 -4.76 14 0 14 C0 9.38 0 4.76 0 0 Z " fill="#4D3629" transform="translate(158,245)"/>
<path d="M0 0 C3.15131024 3.75733144 5.857295 7.71792895 8.53515625 11.81640625 C9.95641732 13.93503275 11.4512464 15.97329276 13 18 C12.01 18 11.02 18 10 18 C6 13.65714286 6 13.65714286 6 11 C1.85906302 10.79029441 1.85906302 10.79029441 -2 12 C-2.625 10.125 -2.625 10.125 -3 8 C-2.34 7.34 -1.68 6.68 -1 6 C-0.95936168 4.33382885 -0.957279 2.66611905 -1 1 C-0.67 0.67 -0.34 0.34 0 0 Z " fill="#241710" transform="translate(28,436)"/>
<path d="M0 0 C1.98 0 3.96 0 6 0 C6 4.95 6 9.9 6 15 C9.96 15 13.92 15 18 15 C18 18.3 18 21.6 18 25 C17.34 24.67 16.68 24.34 16 24 C16.33 22.02 16.66 20.04 17 18 C15.95199219 18.03480469 15.95199219 18.03480469 14.8828125 18.0703125 C13.97273437 18.08835937 13.06265625 18.10640625 12.125 18.125 C10.76761719 18.15980469 10.76761719 18.15980469 9.3828125 18.1953125 C7 18 7 18 5 16 C4.85502015 13.41935871 4.81322455 10.95056116 4.875 8.375 C4.88853516 7.31539063 4.88853516 7.31539063 4.90234375 6.234375 C4.92592397 4.48943902 4.96179539 2.74467705 5 1 C3.35 1 1.7 1 0 1 C0 0.67 0 0.34 0 0 Z " fill="#C1885E" transform="translate(152,284)"/>
<path d="M0 0 C0.99 0 1.98 0 3 0 C3.268125 0.60585938 3.53625 1.21171875 3.8125 1.8359375 C6.97412025 8.59598079 10.79475941 14.60963579 16 20 C16.99 20.33 17.98 20.66 19 21 C18.67 22.32 18.34 23.64 18 25 C16.3049465 23.35631176 14.64636034 21.69186276 13 20 C12.44570313 19.44183594 11.89140625 18.88367188 11.3203125 18.30859375 C6.18439383 12.84169366 3.09220072 6.79604553 0 0 Z " fill="#B3825E" transform="translate(27,433)"/>
<path d="M0 0 C0.33 0 0.66 0 1 0 C1 3.96 1 7.92 1 12 C4.63 12 8.26 12 12 12 C12 15.63 12 19.26 12 23 C11.67 23 11.34 23 11 23 C10.67 20.36 10.34 17.72 10 15 C6.846632 14.29925156 4.27275026 14 1 14 C1 17.3 1 20.6 1 24 C0.67 24 0.34 24 0 24 C0 16.08 0 8.16 0 0 Z " fill="#714C34" transform="translate(158,221)"/>
<path d="M0 0 C1.98 0 3.96 0 6 0 C5.360625 0.350625 4.72125 0.70125 4.0625 1.0625 C1.17836168 3.77184206 1.2899178 6.15858911 1 10 C3.97 10 6.94 10 10 10 C10 6.7 10 3.4 10 0 C10.66 0 11.32 0 12 0 C12 3.63 12 7.26 12 11 C8.04 11 4.08 11 0 11 C0 7.37 0 3.74 0 0 Z " fill="#BE8761" transform="translate(419,299)"/>
<path d="M0 0 C1 3 1 3 0.22265625 4.82421875 C-0.8515625 6.54947917 -1.92578125 8.27473958 -3 10 C-3.66 10 -4.32 10 -5 10 C-5.2475 10.70125 -5.495 11.4025 -5.75 12.125 C-7.16088026 15.37002459 -8.97895398 18.10316737 -11 21 C-12.32 20.34 -13.64 19.68 -15 19 C-14.50371094 18.55011719 -14.00742187 18.10023438 -13.49609375 17.63671875 C-7.90057256 12.3384928 -3.89817185 6.62689215 0 0 Z " fill="#331E10" transform="translate(470,438)"/>
<path d="M0 0 C3.96 0 7.92 0 12 0 C12 3.96 12 7.92 12 12 C11.34 12 10.68 12 10 12 C10 8.7 10 5.4 10 2 C6.7 2 3.4 2 0 2 C0 1.34 0 0.68 0 0 Z " fill="#805539" transform="translate(458,156)"/>
<path d="M0 0 C2 3 2 3 1.79296875 5.375 C1.49326172 6.674375 1.49326172 6.674375 1.1875 8 C0.89939453 9.299375 0.89939453 9.299375 0.60546875 10.625 C0.1435459 12.43692962 -0.40869114 14.22607343 -1 16 C-3.5625 17.1875 -3.5625 17.1875 -6 18 C-4 12 -2 6 0 0 Z " fill="#2E1A0D" transform="translate(477,420)"/>
<path d="M0 0 C4.29 0 8.58 0 13 0 C13.78947104 3.9473552 14.09202608 7.04287849 14 11 C13.01 11.33 12.02 11.66 11 12 C11 8.37 11 4.74 11 1 C7.37 1 3.74 1 0 1 C0 0.67 0 0.34 0 0 Z " fill="#8C6042" transform="translate(265,298)"/>
<path d="M0 0 C1.35015859 4.05047576 0.62084998 6.7920168 0 11 C0.99 11.33 1.98 11.66 3 12 C2.67 12.66 2.34 13.32 2 14 C1.38125 13.814375 0.7625 13.62875 0.125 13.4375 C-2.04160178 12.76313824 -2.04160178 12.76313824 -4 14 C-3.46148032 8.72250715 -2.22656164 4.74354436 0 0 Z " fill="#B88259" transform="translate(27,66)"/>
<path d="M0 0 C0.33 0 0.66 0 1 0 C1.22786458 2.05078125 1.45572917 4.1015625 1.68359375 6.15234375 C1.81886614 8.01140229 1.81886614 8.01140229 3 9 C4.51469448 9.23192865 6.03754562 9.41215238 7.5625 9.5625 C8.38878906 9.64628906 9.21507812 9.73007812 10.06640625 9.81640625 C10.70449219 9.87699219 11.34257812 9.93757813 12 10 C12 10.66 12 11.32 12 12 C8.04 12 4.08 12 0 12 C0 8.04 0 4.08 0 0 Z " fill="#7F5438" transform="translate(209,337)"/>
<path d="M0 0 C2.83203125 0.03255208 5.6640625 0.06510417 8.49609375 0.09765625 C8.49609375 4.05765625 8.49609375 8.01765625 8.49609375 12.09765625 C8.16609375 12.09765625 7.83609375 12.09765625 7.49609375 12.09765625 C6.83609375 9.12765625 6.17609375 6.15765625 5.49609375 3.09765625 C4.75359375 2.95328125 4.01109375 2.80890625 3.24609375 2.66015625 C0.97581636 2.19578133 -1.26150104 1.67902056 -3.50390625 1.09765625 C-2.50390625 0.09765625 -2.50390625 0.09765625 0 0 Z " fill="#B8835E" transform="translate(46.50390625,336.90234375)"/>
<path d="M0 0 C2.96052484 3.36423277 3.92289822 6.69159287 5 11 C4.01 11.33 3.02 11.66 2 12 C2 10.02 2 8.04 2 6 C1.01 6 0.02 6 -1 6 C-0.67 4.02 -0.34 2.04 0 0 Z " fill="#B68059" transform="translate(471,64)"/>
<path d="M0 0 C-2.54631035 2.97069541 -5.42230149 4.4775751 -9 6 C-9.66 5.67 -10.32 5.34 -11 5 C-10.67 3.68 -10.34 2.36 -10 1 C-6.59437148 0.22157062 -3.49234244 -0.09978121 0 0 Z " fill="#2B160A" transform="translate(67,26)"/>
<path d="M0 0 C0.66 0 1.32 0 2 0 C2.33 2.97 2.66 5.94 3 9 C-1.62 9 -6.24 9 -11 9 C-11 8.67 -11 8.34 -11 8 C-7.04 8 -3.08 8 1 8 C0.34 5.69 -0.32 3.38 -1 1 C-0.67 0.67 -0.34 0.34 0 0 Z " fill="#9D6E4E" transform="translate(300,314)"/>
<path d="M0 0 C3.96 0 7.92 0 12 0 C11.01 0.495 11.01 0.495 10 1 C10 1.99 10 2.98 10 4 C9.34 4 8.68 4 8 4 C8 4.66 8 5.32 8 6 C7.34 6 6.68 6 6 6 C5.67 4.68 5.34 3.36 5 2 C3.35 1.67 1.7 1.34 0 1 C0 0.67 0 0.34 0 0 Z " fill="#B37A50" transform="translate(419,298)"/>
<path d="M0 0 C3.47493817 5.79156362 3.11459949 12.46782935 3 19 C2.67 19 2.34 19 2 19 C-1.62870159 6.51480638 -1.62870159 6.51480638 0 0 Z " fill="#A37553" transform="translate(477,79)"/>
<path d="M0 0 C5.31427203 2.70923672 8.42148591 5.22864787 12 10 C9 10 9 10 7.5 8.5625 C7.005 8.046875 6.51 7.53125 6 7 C5.01 6.67 4.02 6.34 3 6 C0 2.55555556 0 2.55555556 0 0 Z " fill="#B3835E" transform="translate(442,32)"/>
<path d="M0 0 C1.50433594 0.01353516 1.50433594 0.01353516 3.0390625 0.02734375 C3.80992187 0.03894531 4.58078125 0.05054688 5.375 0.0625 C1.85344036 2.41020643 -0.13271843 2.43919614 -4.3125 2.6875 C-5.49199219 2.76226562 -6.67148437 2.83703125 -7.88671875 2.9140625 C-8.79035156 2.96304687 -9.69398438 3.01203125 -10.625 3.0625 C-6.58365069 0.36826713 -4.81510472 -0.05598959 0 0 Z " fill="#AE7E5A" transform="translate(412.625,476.9375)"/>
<path d="M0 0 C0 0.99 0 1.98 0 3 C-3.30181761 5.83012938 -4.96683095 7.07653104 -9.375 6.75 C-10.24125 6.5025 -11.1075 6.255 -12 6 C-9.4347341 4.28982274 -7.12039035 3.09582189 -4.3125 1.875 C-3.50425781 1.52179688 -2.69601562 1.16859375 -1.86328125 0.8046875 C-1.24839844 0.53914063 -0.63351562 0.27359375 0 0 Z " fill="#321C0D" transform="translate(438,470)"/>
<path d="M0 0 C0.33 0 0.66 0 1 0 C1.33 2.97 1.66 5.94 2 9 C5.3 9.66 8.6 10.32 12 11 C12 11.33 12 11.66 12 12 C8.04 12 4.08 12 0 12 C0 8.04 0 4.08 0 0 Z " fill="#825334" transform="translate(315,337)"/>
<path d="M0 0 C2.97 0 5.94 0 9 0 C9 3.63 9 7.26 9 11 C8.67 11 8.34 11 8 11 C7.979375 9.906875 7.95875 8.81375 7.9375 7.6875 C7.43885957 4.04267663 7.43885957 4.04267663 5.375 2.8671875 C3.21776965 1.93575266 3.21776965 1.93575266 0 1 C0 0.67 0 0.34 0 0 Z " fill="#BD8863" transform="translate(306,337)"/>
<path d="M0 0 C0 2.97 0 5.94 0 9 C-0.99 9.495 -0.99 9.495 -2 10 C-3.4783226 7.04335481 -3.06032783 4.25770263 -3 1 C-1 0 -1 0 0 0 Z " fill="#B5815B" transform="translate(479,408)"/>
<path d="M0 0 C3.59478807 3.32850747 6.22364768 6.98971331 9 11 C8.01 11 7.02 11 6 11 C2 6.65714286 2 6.65714286 2 4 C1.34 4 0.68 4 0 4 C0 2.68 0 1.36 0 0 Z " fill="#331C0C" transform="translate(32,443)"/>
<path d="M0 0 C3.5 0.3125 3.5 0.3125 7 1 C7.33 1.66 7.66 2.32 8 3 C6.35 3.66 4.7 4.32 3 5 C1.68 3.68 0.36 2.36 -1 1 C-0.67 0.67 -0.34 0.34 0 0 Z " fill="#140E0C" transform="translate(410,0)"/>
<path d="M0 0 C0.66 0.33 1.32 0.66 2 1 C1.56179109 5.55737263 1.14958831 8.57653445 -2 12 C-1.44687265 7.97007218 -0.8441938 3.97977076 0 0 Z " fill="#B6835D" transform="translate(475,419)"/>
<path d="M0 0 C0 3 0 3 -1 6 C-2.98 6.33 -4.96 6.66 -7 7 C-4.66666667 4.66666667 -2.33333333 2.33333333 0 0 Z " fill="#B4815B" transform="translate(55,33)"/>
<path d="M0 0 C3.3 0 6.6 0 10 0 C9.67 1.32 9.34 2.64 9 4 C9 3.34 9 2.68 9 2 C8.071875 2 7.14375 2 6.1875 2 C4.125 2 2.0625 2 0 2 C0 1.34 0 0.68 0 0 Z " fill="#7C4F35" transform="translate(83,156)"/>
<path d="M0 0 C0.33 0.66 0.66 1.32 1 2 C2.32 2.33 3.64 2.66 5 3 C1.7 3.66 -1.6 4.32 -5 5 C-4 2 -4 2 -1.9375 0.8125 C-1.298125 0.544375 -0.65875 0.27625 0 0 Z " fill="#2B180B" transform="translate(75,20)"/>
<path d="M0 0 C0.33 0 0.66 0 1 0 C1 2.64 1 5.28 1 8 C0.01 8 -0.98 8 -2 8 C-1.125 1.125 -1.125 1.125 0 0 Z " fill="#7B5038" transform="translate(430,314)"/>
<path d="M0 0 C0.33 0 0.66 0 1 0 C1 2.31 1 4.62 1 7 C1.66 7 2.32 7 3 7 C2.67 8.32 2.34 9.64 2 11 C1.34 11 0.68 11 0 11 C0 7.37 0 3.74 0 0 Z " fill="#A06844" transform="translate(443,311)"/>
<path d="M0 0 C4.52346473 2.26173236 5.05828666 3.53405933 7 8 C6.01 8.495 6.01 8.495 5 9 C3.35 6.03 1.7 3.06 0 0 Z " fill="#321B0B" transform="translate(463,50)"/>
<path d="M0 0 C0.33 1.32 0.66 2.64 1 4 C-1.64 4.33 -4.28 4.66 -7 5 C-4.87219421 2.65941363 -2.88437779 1.29299694 0 0 Z " fill="#B2805B" transform="translate(64,28)"/>
</svg>
